<svg style="position: absolute; width: 0; height: 0; overflow: hidden;" version="1.1" xmlns="http://www.w3.org/2000/svg" xmlns:xlink="http://www.w3.org/1999/xlink">
<defs>
<symbol id="social-bloglovin" viewBox="0 0 32 32">
<title>bloglovin</title>
<path class="path1" d="M16 28c-0.271 0-0.5-0.093-0.688-0.282l-9.75-9.407c-0.104-0.084-0.248-0.218-0.43-0.407s-0.471-0.529-0.868-1.023-0.75-1.002-1.063-1.523-0.591-1.152-0.836-1.891-0.366-1.455-0.366-2.154c0-2.291 0.661-4.084 1.984-5.375s3.152-1.938 5.484-1.938c0.646 0 1.305 0.112 1.977 0.336s1.296 0.527 1.875 0.907 1.075 0.737 1.493 1.070c0.416 0.334 0.813 0.688 1.188 1.063 0.375-0.375 0.771-0.729 1.188-1.063s0.914-0.689 1.493-1.070 1.204-0.682 1.875-0.907 1.33-0.336 1.977-0.336c2.334 0 4.161 0.646 5.484 1.938s1.984 3.084 1.984 5.375c0 2.302-1.193 4.646-3.579 7.032l-9.734 9.375c-0.188 0.188-0.416 0.28-0.688 0.28z"></path>
</symbol>
<symbol id="social-dribbble" viewBox="0 0 32 32">
<title>dribbble</title>
<path class="path1" d="M20.571 26.786q-0.75-4.304-2.5-8.893h-0.036l-0.036 0.018q-0.286 0.107-0.768 0.295t-1.804 0.875-2.446 1.464-2.339 2.045-1.839 2.643l-0.268-0.196q3.286 2.679 7.464 2.679 2.357 0 4.571-0.929zM17.268 15.946q-0.375-0.875-0.946-1.982-5.554 1.661-12.018 1.661-0.018 0.125-0.018 0.375 0 2.214 0.786 4.223t2.214 3.598q0.893-1.589 2.205-2.973t2.545-2.223 2.33-1.446 1.777-0.857l0.661-0.232q0.071-0.018 0.232-0.063t0.232-0.080zM15.357 12.161q-2.143-3.804-4.357-6.75-2.464 1.161-4.179 3.321t-2.286 4.857q5.393 0 10.821-1.429zM27.571 17.857q-3.75-1.071-7.304-0.518 1.554 4.268 2.286 8.375 1.982-1.339 3.304-3.384t1.714-4.473zM13.196 4.625q-0.018 0-0.036 0.018 0.018-0.018 0.036-0.018zM23.732 7.214q-3.304-2.929-7.732-2.929-1.357 0-2.768 0.339 2.339 3.036 4.393 6.821 1.232-0.464 2.321-1.080t1.723-1.098 1.17-1.018 0.67-0.723zM27.714 15.875q-0.054-4.143-2.661-7.321l-0.018 0.018q-0.161 0.214-0.339 0.438t-0.777 0.795-1.268 1.080-1.786 1.161-2.348 1.152q0.446 0.946 0.786 1.696 0.036 0.107 0.116 0.313t0.134 0.295q0.643-0.089 1.33-0.125t1.313-0.036 1.232 0.027 1.143 0.071 1.009 0.098 0.857 0.116 0.652 0.107 0.446 0.080zM29.714 16q0 3.732-1.839 6.884t-4.991 4.991-6.884 1.839-6.884-1.839-4.991-4.991-1.839-6.884 1.839-6.884 4.991-4.991 6.884-1.839 6.884 1.839 4.991 4.991 1.839 6.884z"></path>
</symbol>
<symbol id="social-email" viewBox="0 0 32 32">
<title>email</title>
<path class="path1" d="M28.002 24.457v-11.991c-0.334 0.375-0.693 0.718-1.077 1.030-2.789 2.145-5.007 3.904-6.652 5.277-0.53 0.448-0.962 0.796-1.296 1.046s-0.784 0.502-1.35 0.757c-0.568 0.255-1.1 0.382-1.6 0.382h-0.030c-0.5 0-1.034-0.127-1.6-0.382-0.568-0.255-1.018-0.507-1.35-0.757-0.334-0.25-0.764-0.598-1.296-1.046-1.645-1.373-3.862-3.134-6.652-5.277-0.386-0.313-0.745-0.655-1.077-1.030v11.991c0 0.136 0.050 0.252 0.148 0.352 0.098 0.098 0.216 0.148 0.352 0.148h22.984c0.136 0 0.252-0.050 0.352-0.148 0.095-0.098 0.145-0.216 0.145-0.352zM28.002 8.048v-0.382l-0.007-0.204-0.046-0.195-0.086-0.141-0.141-0.118-0.218-0.039h-22.986c-0.136 0-0.252 0.050-0.352 0.148-0.098 0.098-0.148 0.216-0.148 0.352 0 1.748 0.764 3.227 2.295 4.434 2.009 1.582 4.096 3.232 6.261 4.95 0.063 0.052 0.245 0.205 0.546 0.461s0.541 0.45 0.718 0.586c0.177 0.136 0.409 0.3 0.695 0.491 0.286 0.193 0.548 0.336 0.789 0.429 0.239 0.093 0.463 0.141 0.671 0.141h0.030c0.209 0 0.432-0.046 0.671-0.141 0.239-0.093 0.502-0.238 0.789-0.429 0.286-0.193 0.518-0.357 0.695-0.491 0.177-0.136 0.416-0.33 0.718-0.586s0.484-0.409 0.546-0.461c2.164-1.718 4.252-3.368 6.261-4.95 0.563-0.448 1.086-1.048 1.57-1.804 0.486-0.754 0.729-1.438 0.729-2.052zM30 7.47v16.988c0 0.688-0.245 1.275-0.734 1.764s-1.077 0.734-1.764 0.734h-22.984c-0.688 0-1.275-0.245-1.764-0.734s-0.734-1.077-0.734-1.764v-16.988c0-0.688 0.245-1.275 0.734-1.764s1.077-0.734 1.764-0.734h22.984c0.688 0 1.275 0.245 1.764 0.734s0.734 1.077 0.734 1.764z"></path>
</symbol>
<symbol id="social-facebook" viewBox="0 0 32 32">
<title>facebook</title>
<path class="path1" d="M23.738 0.214v4.714h-2.804c-1.023 0-1.714 0.214-2.071 0.643s-0.536 1.071-0.536 1.929v3.375h5.232l-0.696 5.286h-4.536v13.554h-5.464v-13.554h-4.554v-5.286h4.554v-3.893c0-2.214 0.62-3.932 1.857-5.152s2.887-1.83 4.946-1.83c1.75 0 3.107 0.071 4.071 0.214z"></path>
</symbol>
<symbol id="social-flickr" viewBox="0 0 32 32">
<title>flickr</title>
<path class="path1" d="M14.032 16.007c0-1.664-0.586-3.080-1.757-4.25s-2.586-1.757-4.25-1.757-3.080 0.586-4.25 1.757-1.757 2.588-1.757 4.25 0.586 3.080 1.757 4.25c1.17 1.17 2.588 1.757 4.25 1.757s3.080-0.586 4.25-1.757c1.171-1.17 1.757-2.586 1.757-4.25zM30.014 16.007c0-1.664-0.586-3.080-1.757-4.25s-2.587-1.757-4.25-1.757-3.080 0.586-4.25 1.757c-1.17 1.17-1.757 2.588-1.757 4.25s0.586 3.080 1.757 4.25c1.17 1.17 2.587 1.757 4.25 1.757s3.080-0.586 4.25-1.757c1.171-1.17 1.757-2.586 1.757-4.25z"></path>
</symbol>
<symbol id="social-github" viewBox="0 0 32 32">
<title>github</title>
<path class="path1" d="M12.571 20.596c0 0.477-0.075 0.964-0.223 1.464s-0.405 0.952-0.768 1.357-0.795 0.607-1.295 0.607-0.932-0.202-1.295-0.607c-0.363-0.405-0.62-0.857-0.768-1.357s-0.223-0.988-0.223-1.464 0.075-0.964 0.223-1.464 0.405-0.952 0.768-1.357c0.363-0.405 0.795-0.607 1.295-0.607s0.932 0.202 1.295 0.607 0.62 0.857 0.768 1.357 0.223 0.988 0.223 1.464zM24 20.596c0 0.477-0.075 0.964-0.223 1.464s-0.405 0.952-0.768 1.357-0.795 0.607-1.295 0.607-0.932-0.202-1.295-0.607-0.62-0.857-0.768-1.357-0.223-0.988-0.223-1.464 0.075-0.964 0.223-1.464 0.405-0.952 0.768-1.357 0.795-0.607 1.295-0.607 0.932 0.202 1.295 0.607 0.62 0.857 0.768 1.357 0.223 0.988 0.223 1.464zM26.857 20.596c0-1.429-0.411-2.643-1.232-3.643s-1.934-1.5-3.339-1.5c-0.488 0-1.648 0.125-3.482 0.375-0.845 0.13-1.78 0.196-2.804 0.196s-1.959-0.066-2.804-0.196c-1.809-0.25-2.97-0.375-3.482-0.375-1.405 0-2.518 0.5-3.339 1.5s-1.232 2.214-1.232 3.643c0 1.048 0.191 1.961 0.571 2.741s0.862 1.393 1.446 1.839 1.309 0.804 2.179 1.071 1.702 0.443 2.5 0.527 1.684 0.125 2.661 0.125h3c0.977 0 1.863-0.041 2.661-0.125s1.63-0.259 2.5-0.527 1.595-0.625 2.179-1.071 1.066-1.059 1.446-1.839 0.571-1.695 0.571-2.741zM30.857 17.454c0 2.464-0.363 4.434-1.089 5.911-0.452 0.916-1.080 1.709-1.884 2.375s-1.643 1.179-2.518 1.536-1.887 0.639-3.036 0.848-2.17 0.339-3.063 0.393-1.887 0.080-2.982 0.080c-0.929 0-1.773-0.018-2.536-0.054s-1.639-0.111-2.634-0.223-1.902-0.291-2.723-0.536-1.638-0.55-2.446-0.92-1.53-0.852-2.161-1.446-1.143-1.28-1.536-2.054c-0.738-1.464-1.107-3.434-1.107-5.911 0-2.821 0.809-5.179 2.429-7.071-0.321-0.977-0.482-1.988-0.482-3.036 0-1.38 0.304-2.679 0.911-3.893 1.286 0 2.416 0.236 3.393 0.705s2.102 1.205 3.375 2.205c1.75-0.416 3.589-0.625 5.518-0.625 1.762 0 3.429 0.191 5 0.571 1.25-0.977 2.363-1.696 3.339-2.161s2.102-0.696 3.375-0.696c0.607 1.214 0.911 2.513 0.911 3.893 0 1.036-0.161 2.036-0.482 3 1.62 1.904 2.429 4.273 2.429 7.107z"></path>
</symbol>
<symbol id="social-gplus" viewBox="0 0 32 32">
<title>gplus</title>
<path class="path1" d="M16 14.036h12.946q0.214 1.196 0.214 2.286 0 3.875-1.625 6.92t-4.634 4.759-6.902 1.714q-2.804 0-5.339-1.080t-4.375-2.92-2.92-4.375-1.080-5.339 1.080-5.339 2.92-4.375 4.375-2.92 5.339-1.080q5.357 0 9.196 3.589l-3.732 3.589q-2.196-2.125-5.464-2.125-2.304 0-4.259 1.161t-3.098 3.152-1.143 4.348 1.143 4.348 3.098 3.152 4.259 1.161q1.554 0 2.857-0.429t2.143-1.071 1.464-1.464 0.92-1.554 0.402-1.393h-7.786v-4.714z"></path>
</symbol>
<symbol id="social-instagram" viewBox="0 0 32 32">
<title>instagram</title>
<path class="path1" d="M29.448 15.936c0 2.661-0.029 4.502-0.087 5.525-0.116 2.416-0.836 4.288-2.161 5.613s-3.195 2.045-5.613 2.161c-1.023 0.057-2.864 0.087-5.525 0.087s-4.502-0.029-5.525-0.087c-2.416-0.116-4.287-0.836-5.612-2.161s-2.045-3.195-2.161-5.613c-0.059-1.021-0.087-2.864-0.087-5.525s0.029-4.502 0.087-5.525c0.116-2.416 0.836-4.287 2.161-5.612s3.195-2.045 5.612-2.161c1.021-0.057 2.864-0.087 5.525-0.087s4.502 0.029 5.525 0.087c2.416 0.116 4.288 0.836 5.613 2.161s2.045 3.195 2.161 5.612c0.059 1.023 0.087 2.864 0.087 5.525zM17.396 4.948c-0.807 0.005-1.252 0.009-1.334 0.009s-0.525-0.004-1.334-0.009c-0.807-0.005-1.42-0.005-1.839 0-0.418 0.005-0.979 0.023-1.682 0.052s-1.302 0.088-1.795 0.175c-0.495 0.088-0.909 0.195-1.246 0.323-0.58 0.232-1.093 0.57-1.534 1.011s-0.779 0.954-1.011 1.534c-0.129 0.338-0.236 0.752-0.323 1.246s-0.145 1.093-0.175 1.795c-0.029 0.704-0.046 1.264-0.052 1.682s-0.005 1.032 0 1.839c0.005 0.807 0.009 1.252 0.009 1.334s-0.004 0.525-0.009 1.334c-0.005 0.807-0.005 1.42 0 1.839 0.005 0.418 0.023 0.979 0.052 1.682s0.088 1.302 0.175 1.795c0.088 0.495 0.195 0.909 0.323 1.246 0.232 0.58 0.57 1.093 1.011 1.534s0.952 0.779 1.534 1.011c0.338 0.129 0.752 0.236 1.246 0.323 0.493 0.087 1.093 0.145 1.795 0.175 0.704 0.029 1.264 0.046 1.682 0.052s1.030 0.005 1.839 0c0.807-0.005 1.252-0.009 1.334-0.009 0.080 0 0.525 0.004 1.334 0.009 0.807 0.005 1.42 0.005 1.839 0 0.418-0.005 0.979-0.023 1.682-0.052s1.302-0.087 1.795-0.175c0.493-0.087 0.909-0.195 1.246-0.323 0.58-0.232 1.093-0.57 1.534-1.011s0.779-0.952 1.011-1.534c0.129-0.337 0.236-0.752 0.323-1.246 0.087-0.493 0.145-1.093 0.175-1.795 0.029-0.704 0.046-1.264 0.052-1.682s0.005-1.030 0-1.839c-0.005-0.807-0.009-1.252-0.009-1.334 0-0.080 0.004-0.525 0.009-1.334 0.005-0.807 0.005-1.42 0-1.839-0.005-0.418-0.023-0.979-0.052-1.682s-0.087-1.302-0.175-1.795c-0.087-0.493-0.195-0.909-0.323-1.246-0.232-0.58-0.57-1.093-1.011-1.534s-0.954-0.779-1.534-1.011c-0.337-0.129-0.752-0.236-1.246-0.323s-1.093-0.145-1.795-0.175c-0.704-0.029-1.264-0.046-1.682-0.052-0.418-0.007-1.030-0.007-1.839 0zM20.927 11.073c1.336 1.336 2.004 2.957 2.004 4.862s-0.668 3.527-2.004 4.863c-1.336 1.336-2.957 2.004-4.863 2.004s-3.527-0.668-4.863-2.004c-1.338-1.336-2.005-2.957-2.005-4.863s0.668-3.527 2.004-4.863c1.336-1.336 2.957-2.004 4.863-2.004 1.907 0 3.527 0.668 4.864 2.004zM19.218 19.091c0.871-0.871 1.307-1.923 1.307-3.155s-0.436-2.284-1.307-3.155c-0.871-0.871-1.923-1.307-3.155-1.307s-2.284 0.436-3.155 1.307c-0.871 0.871-1.307 1.923-1.307 3.155s0.436 2.284 1.307 3.155c0.871 0.871 1.923 1.307 3.155 1.307s2.284-0.436 3.155-1.307zM24.343 7.657c0.314 0.314 0.471 0.691 0.471 1.132s-0.157 0.82-0.471 1.132c-0.314 0.314-0.691 0.471-1.132 0.471s-0.82-0.157-1.132-0.471c-0.314-0.314-0.471-0.691-0.471-1.132s0.157-0.82 0.471-1.132c0.314-0.314 0.691-0.471 1.132-0.471 0.441 0.002 0.818 0.159 1.132 0.471z"></path>
</symbol>
<symbol id="social-linkedin" viewBox="0 0 32 32">
<title>linkedin</title>
<path class="path1" d="M8.518 11.161v17.696h-5.893v-17.696h5.893zM8.893 5.696q0.018 1.304-0.902 2.179t-2.42 0.875h-0.036q-1.464 0-2.357-0.875t-0.893-2.179q0-1.321 0.92-2.188t2.402-0.866 2.375 0.866 0.911 2.188zM29.714 18.714v10.143h-5.875v-9.464q0-1.875-0.723-2.938t-2.259-1.063q-1.125 0-1.884 0.616t-1.134 1.527q-0.196 0.536-0.196 1.446v9.875h-5.875q0.036-7.125 0.036-11.554t-0.018-5.286l-0.018-0.857h5.875v2.571h-0.036q0.357-0.571 0.732-1t1.009-0.929 1.554-0.777 2.045-0.277q3.054 0 4.911 2.027t1.857 5.938z"></path>
</symbol>
<symbol id="social-medium" viewBox="0 0 32 32">
<title>medium</title>
<path class="path1" d="M11.329 8.579v18.329c0 0.261-0.064 0.482-0.195 0.664s-0.32 0.273-0.57 0.273c-0.177 0-0.348-0.041-0.516-0.125l-7.266-3.641c-0.218-0.104-0.404-0.279-0.555-0.523s-0.227-0.488-0.227-0.727v-17.813c0-0.209 0.052-0.386 0.157-0.532s0.255-0.218 0.454-0.218c0.146 0 0.375 0.079 0.688 0.234l7.984 4c0.030 0.032 0.046 0.057 0.046 0.079zM12.329 10.157l8.343 13.532-8.343-4.157v-9.375zM30 10.438v16.468c0 0.261-0.073 0.471-0.218 0.632s-0.343 0.243-0.593 0.243-0.495-0.068-0.734-0.204l-6.891-3.438 8.436-13.702zM29.954 8.563c0 0.032-1.336 2.216-4.007 6.555s-4.238 6.877-4.695 7.618l-6.095-9.907 5.063-8.234c0.177-0.291 0.448-0.438 0.813-0.438 0.146 0 0.282 0.032 0.407 0.093l8.454 4.218c0.039 0.021 0.061 0.054 0.061 0.095z"></path>
</symbol>
<symbol id="social-periscope" viewBox="0 0 32 32">
<title>periscope</title>
<path class="path1" d="M16.032 0.002c-6.396 0-11.582 5.184-11.582 11.58 0 8.611 9.261 18.073 11.58 18.073s11.58-9.462 11.58-18.073c0.002-6.396-5.184-11.58-11.579-11.58zM16.032 18.646c-3.88 0-7.027-3.146-7.027-7.027 0-1.537 0.496-2.961 1.334-4.118 0.089 1.486 1.321 2.664 2.829 2.664 1.568 0 2.838-1.271 2.838-2.838 0-1.12-0.65-2.086-1.593-2.546 0.52-0.123 1.061-0.189 1.618-0.189 3.88 0 7.027 3.146 7.027 7.027 0 3.882-3.145 7.027-7.025 7.027z"></path>
</symbol>
<symbol id="social-phone" viewBox="0 0 32 32">
<title>phone</title>
<path class="path1" d="M28.571 22.143q0 0.482-0.179 1.259t-0.375 1.223q-0.375 0.893-2.179 1.893-1.679 0.911-3.321 0.911-0.482 0-0.938-0.063t-1.027-0.223-0.848-0.259-0.991-0.366-0.875-0.321q-1.75-0.625-3.125-1.482-2.286-1.411-4.723-3.848t-3.848-4.723q-0.857-1.375-1.482-3.125-0.054-0.161-0.321-0.875t-0.366-0.991-0.259-0.848-0.223-1.027-0.063-0.938q0-1.643 0.911-3.321 1-1.804 1.893-2.179 0.446-0.196 1.223-0.375t1.259-0.179q0.25 0 0.375 0.054 0.321 0.107 0.946 1.357 0.196 0.339 0.536 0.964t0.625 1.134 0.554 0.955q0.054 0.071 0.313 0.446t0.384 0.634 0.125 0.509q0 0.357-0.509 0.893t-1.107 0.982-1.107 0.946-0.509 0.821q0 0.161 0.089 0.402t0.152 0.366 0.25 0.429 0.205 0.339q1.357 2.446 3.107 4.196t4.196 3.107q0.036 0.018 0.339 0.205t0.429 0.25 0.366 0.152 0.402 0.089q0.321 0 0.821-0.509t0.946-1.107 0.982-1.107 0.893-0.509q0.25 0 0.509 0.125t0.634 0.384 0.446 0.313q0.446 0.268 0.955 0.554t1.134 0.625 0.964 0.536q1.25 0.625 1.357 0.946 0.054 0.125 0.054 0.375z"></path>
</symbol>
<symbol id="social-pinterest" viewBox="0 0 32 32">
<title>pinterest</title>
<path class="path1" d="M4.571 10.661q0-1.929 0.67-3.634t1.848-2.973 2.714-2.196 3.304-1.393 3.607-0.464q2.821 0 5.25 1.188t3.946 3.455 1.518 5.125q0 1.714-0.339 3.357t-1.071 3.161-1.786 2.67-2.589 1.839-3.375 0.688q-1.214 0-2.411-0.571t-1.714-1.571q-0.179 0.696-0.5 2.009t-0.42 1.696-0.366 1.268-0.464 1.268-0.571 1.116-0.821 1.384-1.107 1.545l-0.25 0.089-0.161-0.179q-0.268-2.804-0.268-3.357 0-1.643 0.384-3.688t1.188-5.134 0.929-3.625q-0.571-1.161-0.571-3.018 0-1.482 0.929-2.786t2.357-1.304q1.089 0 1.696 0.723t0.607 1.83q0 1.179-0.786 3.411t-0.786 3.339q0 1.125 0.804 1.866t1.946 0.741q0.982 0 1.821-0.446t1.402-1.214 1-1.696 0.679-1.973 0.357-1.982 0.116-1.777q0-3.089-1.955-4.813t-5.098-1.723q-3.571 0-5.964 2.313t-2.393 5.866q0 0.786 0.223 1.518t0.482 1.161 0.482 0.813 0.223 0.545q0 0.5-0.268 1.304t-0.661 0.804q-0.036 0-0.304-0.054-0.911-0.268-1.616-1t-1.089-1.688-0.58-1.929-0.196-1.902z"></path>
</symbol>
<symbol id="social-rss" viewBox="0 0 32 32">
<title>rss</title>
<path class="path1" d="M10.286 24q0 1.429-1 2.429t-2.429 1-2.429-1-1-2.429 1-2.429 2.429-1 2.429 1 1 2.429zM19.429 26.196q0.036 0.5-0.304 0.857-0.321 0.375-0.839 0.375h-2.411q-0.446 0-0.768-0.295t-0.357-0.741q-0.393-4.089-3.295-6.991t-6.991-3.295q-0.446-0.036-0.741-0.357t-0.295-0.768v-2.411q0-0.518 0.375-0.839 0.304-0.304 0.768-0.304h0.089q2.857 0.232 5.464 1.438t4.625 3.241q2.036 2.018 3.241 4.625t1.438 5.464zM28.571 26.232q0.036 0.482-0.321 0.839-0.321 0.357-0.821 0.357h-2.554q-0.464 0-0.795-0.313t-0.348-0.759q-0.214-3.839-1.804-7.295t-4.134-6-6-4.134-7.295-1.821q-0.446-0.018-0.759-0.348t-0.313-0.777v-2.554q0-0.5 0.357-0.821 0.321-0.321 0.786-0.321h0.054q4.679 0.232 8.955 2.143t7.598 5.25q3.339 3.321 5.25 7.598t2.143 8.955z"></path>
</symbol>
<symbol id="social-snapchat" viewBox="0 0 32 32">
<title>snapchat</title>
<path class="path1" d="M16.355 2.455c1.563-0.011 2.964 0.388 4.207 1.198 1.241 0.811 2.195 1.932 2.861 3.368 0.314 0.677 0.471 1.72 0.471 3.13 0 0.548-0.052 1.662-0.157 3.341 0.163 0.082 0.327 0.123 0.489 0.123 0.209 0 0.507-0.079 0.891-0.236 0.386-0.157 0.682-0.236 0.893-0.236 0.337 0 0.664 0.105 0.98 0.314 0.314 0.211 0.473 0.479 0.473 0.805 0 0.373-0.184 0.688-0.552 0.945s-0.77 0.441-1.207 0.552c-0.438 0.111-0.839 0.28-1.207 0.507s-0.552 0.505-0.552 0.83c0 0.175 0.070 0.425 0.211 0.752 0.432 0.957 1.029 1.83 1.793 2.623s1.605 1.382 2.527 1.766c0.327 0.139 0.793 0.273 1.4 0.402 0.327 0.070 0.489 0.275 0.489 0.613 0 0.816-1.277 1.418-3.83 1.802-0.082 0.129-0.146 0.355-0.193 0.682s-0.129 0.598-0.245 0.813c-0.116 0.216-0.309 0.323-0.577 0.323-0.234 0-0.595-0.038-1.084-0.114-0.489-0.075-0.863-0.114-1.12-0.114-0.432 0-0.793 0.029-1.084 0.087-0.373 0.059-0.741 0.189-1.102 0.393s-0.7 0.425-1.014 0.664c-0.314 0.239-0.654 0.475-1.014 0.709s-0.805 0.429-1.329 0.586c-0.525 0.157-1.102 0.236-1.732 0.236-0.607 0-1.17-0.079-1.688-0.236-0.52-0.157-0.957-0.354-1.313-0.586-0.355-0.234-0.691-0.47-1.005-0.709s-0.654-0.461-1.014-0.664c-0.361-0.204-0.723-0.336-1.084-0.393-0.304-0.059-0.671-0.087-1.102-0.087-0.28 0-0.662 0.045-1.145 0.13-0.484 0.087-0.825 0.13-1.023 0.13-0.291 0-0.496-0.107-0.612-0.323s-0.198-0.493-0.245-0.83c-0.046-0.337-0.111-0.571-0.193-0.7-2.554-0.384-3.83-0.986-3.83-1.802 0-0.337 0.163-0.543 0.489-0.613 0.605-0.129 1.073-0.262 1.4-0.402 0.909-0.373 1.752-0.962 2.527-1.766 0.775-0.805 1.373-1.679 1.793-2.623 0.139-0.327 0.209-0.577 0.209-0.752 0-0.327-0.184-0.604-0.552-0.83s-0.773-0.4-1.216-0.516c-0.443-0.116-0.848-0.3-1.216-0.552-0.368-0.25-0.552-0.557-0.552-0.918 0-0.314 0.152-0.58 0.455-0.796s0.623-0.323 0.963-0.323c0.175 0 0.455 0.075 0.839 0.227 0.386 0.152 0.693 0.227 0.927 0.227 0.211 0 0.396-0.041 0.561-0.123-0.105-1.655-0.157-2.764-0.157-3.323 0-1.423 0.157-2.471 0.473-3.148 0.746-1.598 1.748-2.752 3.009-3.462 1.257-0.711 2.796-1.077 4.614-1.1z"></path>
</symbol>
<symbol id="social-stumbleupon" viewBox="0 0 32 32">
<title>stumbleupon</title>
<path class="path1" d="M17.495 12.636v-1.72c0-0.409-0.146-0.757-0.438-1.050-0.291-0.291-0.641-0.438-1.050-0.438s-0.757 0.146-1.050 0.438c-0.291 0.291-0.438 0.641-0.438 1.050v8.92c0 1.7-0.613 3.154-1.836 4.357s-2.695 1.807-4.414 1.807c-1.73 0-3.204-0.609-4.423-1.829s-1.829-2.695-1.829-4.423v-3.877h4.78v3.818c0 0.418 0.146 0.77 0.438 1.057s0.641 0.43 1.050 0.43c0.409 0 0.757-0.143 1.050-0.43 0.291-0.288 0.438-0.639 0.438-1.057v-9.036c0-1.661 0.614-3.080 1.843-4.255s2.695-1.764 4.395-1.764c1.711 0 3.177 0.593 4.402 1.779s1.836 2.614 1.836 4.286v1.982l-2.843 0.845-1.911-0.889zM25.22 15.871h4.78v3.877c0 1.73-0.609 3.204-1.829 4.423s-2.695 1.829-4.423 1.829c-1.72 0-3.191-0.605-4.416-1.814s-1.836-2.67-1.836-4.38v-3.905l1.909 0.889 2.843-0.845v3.936c0 0.409 0.146 0.755 0.438 1.043s0.641 0.43 1.050 0.43c0.409 0 0.757-0.143 1.050-0.43 0.291-0.288 0.438-0.634 0.438-1.043v-4.009z"></path>
</symbol>
<symbol id="social-tumblr" viewBox="0 0 32 32">
<title>tumblr</title>
<path class="path1" d="M23.141 23.732l1.429 4.232c-0.273 0.416-0.934 0.809-1.982 1.179s-2.102 0.559-3.161 0.571c-1.238 0.023-2.371-0.13-3.402-0.464s-1.879-0.773-2.545-1.321-1.232-1.179-1.696-1.893-0.795-1.429-0.991-2.143-0.295-1.416-0.295-2.107v-9.714h-3v-3.839c0.857-0.309 1.625-0.723 2.304-1.241s1.22-1.054 1.625-1.607 0.75-1.161 1.036-1.821 0.488-1.25 0.607-1.768 0.209-1.045 0.268-1.58c0.012-0.059 0.039-0.111 0.080-0.152s0.088-0.063 0.134-0.063h4.357v7.571h5.946v4.5h-5.964v9.25c0 0.357 0.039 0.691 0.116 1s0.211 0.621 0.402 0.938 0.486 0.563 0.884 0.741 0.884 0.262 1.455 0.25c0.929-0.023 1.727-0.196 2.393-0.518z"></path>
</symbol>
<symbol id="social-twitter" viewBox="0 0 32 32">
<title>twitter</title>
<path class="path1" d="M30.071 7.286q-1.196 1.75-2.893 2.982 0.018 0.25 0.018 0.75 0 2.321-0.679 4.634t-2.063 4.437-3.295 3.759-4.607 2.607-5.768 0.973q-4.839 0-8.857-2.589 0.625 0.071 1.393 0.071 4.018 0 7.161-2.464-1.875-0.036-3.357-1.152t-2.036-2.848q0.589 0.089 1.089 0.089 0.768 0 1.518-0.196-2-0.411-3.313-1.991t-1.313-3.67v-0.071q1.214 0.679 2.607 0.732-1.179-0.786-1.875-2.054t-0.696-2.75q0-1.571 0.786-2.911 2.161 2.661 5.259 4.259t6.634 1.777q-0.143-0.679-0.143-1.321 0-2.393 1.688-4.080t4.080-1.688q2.5 0 4.214 1.821 1.946-0.375 3.661-1.393-0.661 2.054-2.536 3.179 1.661-0.179 3.321-0.893z"></path>
</symbol>
<symbol id="social-vimeo" viewBox="0 0 32 32">
<title>vimeo</title>
<path class="path1" d="M30.518 9.25q-0.179 4.214-5.929 11.625-5.946 7.696-10.036 7.696-2.536 0-4.286-4.696-0.786-2.857-2.357-8.607-1.286-4.679-2.804-4.679-0.321 0-2.268 1.357l-1.375-1.75q0.429-0.375 1.929-1.723t2.321-2.063q2.786-2.464 4.304-2.607 1.696-0.161 2.732 0.991t1.446 3.634q0.786 5.125 1.179 6.661 0.982 4.446 2.143 4.446 0.911 0 2.75-2.875 1.804-2.875 1.946-4.393 0.232-2.482-1.946-2.482-1.018 0-2.161 0.464 2.143-7.018 8.196-6.821 4.482 0.143 4.214 5.821z"></path>
</symbol>
<symbol id="social-vine" viewBox="0 0 32 32">
<title>vine</title>
<path class="path1" d="M29.018 14.768v3.536q-1.804 0.411-3.536 0.411-1.161 2.429-2.955 4.839t-3.241 3.848-2.286 1.902q-1.429 0.804-2.893-0.054-0.5-0.304-1.080-0.777t-1.518-1.491-1.83-2.295-1.92-3.286-1.884-4.357-1.634-5.616-1.259-6.964h5.054q0.464 3.893 1.25 7.116t1.866 5.661 2.17 4.205 2.5 3.482q3.018-3.018 5.125-7.25-2.536-1.286-3.982-3.929t-1.446-5.946q0-3.429 1.857-5.616t5.071-2.188q3.179 0 4.875 1.884t1.696 5.313q0 2.839-1.036 5.107-0.125 0.018-0.348 0.054t-0.821 0.036-1.125-0.107-1.107-0.455-0.902-0.92q0.554-1.839 0.554-3.286 0-1.554-0.518-2.357t-1.411-0.804q-0.946 0-1.518 0.884t-0.571 2.509q0 3.321 1.875 5.241t4.768 1.92q1.107 0 2.161-0.25z"></path>
</symbol>
<symbol id="social-xing" viewBox="0 0 32 32">
<title>xing</title>
<path class="path1" d="M14.15 11.654c-0.118 0.213-1.636 2.907-4.554 8.080-0.32 0.543-0.704 0.814-1.152 0.814h-4.236c-0.248 0-0.432-0.1-0.55-0.302-0.118-0.2-0.118-0.413 0-0.637l4.484-7.938c0.012 0 0.012-0.005 0-0.018l-2.852-4.945c-0.141-0.259-0.148-0.479-0.018-0.655 0.107-0.177 0.295-0.266 0.568-0.266h4.236c0.471 0 0.863 0.266 1.17 0.798l2.904 5.068zM28.434 0.277c0.13 0.189 0.13 0.407 0 0.655l-9.357 16.552v0.018l5.954 10.898c0.13 0.236 0.136 0.455 0.018 0.655-0.118 0.177-0.307 0.266-0.568 0.266h-4.236c-0.496 0-0.886-0.266-1.17-0.798l-6.005-11.021c0.213-0.379 3.35-5.943 9.411-16.693 0.295-0.532 0.673-0.798 1.134-0.798h4.271c0.259 0 0.441 0.089 0.548 0.266z"></path>
</symbol>
<symbol id="social-youtube" viewBox="0 0 32 32">
<title>youtube</title>
<path class="path1" d="M19.625 22.214v3.768c0 0.798-0.232 1.196-0.696 1.196-0.273 0-0.541-0.13-0.804-0.393v-5.375c0.262-0.262 0.53-0.393 0.804-0.393 0.464 0 0.696 0.398 0.696 1.196zM25.661 22.232v0.821h-1.607v-0.821c0-0.809 0.268-1.214 0.804-1.214s0.804 0.405 0.804 1.214zM8.411 18.339h1.911v-1.679h-5.571v1.679h1.875v10.161h1.786v-10.161zM13.554 28.5h1.589v-8.821h-1.589v6.75c-0.357 0.5-0.696 0.75-1.018 0.75-0.214 0-0.339-0.125-0.375-0.375-0.012-0.036-0.018-0.245-0.018-0.625v-6.5h-1.589v6.982c0 0.584 0.048 1.018 0.143 1.304 0.143 0.441 0.488 0.661 1.036 0.661 0.571 0 1.179-0.363 1.821-1.089v0.964zM21.214 25.857v-3.518c0-0.87-0.054-1.459-0.161-1.768-0.202-0.666-0.625-1-1.268-1-0.595 0-1.148 0.321-1.661 0.964v-3.875h-1.589v11.839h1.589v-0.857c0.536 0.655 1.089 0.982 1.661 0.982 0.643 0 1.066-0.327 1.268-0.982 0.107-0.321 0.161-0.916 0.161-1.786zM27.25 25.679v-0.232h-1.625c0 0.607-0.012 0.97-0.036 1.089-0.084 0.429-0.321 0.643-0.714 0.643-0.548 0-0.821-0.411-0.821-1.232v-1.554h3.196v-1.839c0-0.941-0.161-1.63-0.482-2.071-0.464-0.607-1.095-0.911-1.893-0.911-0.809 0-1.446 0.304-1.911 0.911-0.334 0.441-0.5 1.13-0.5 2.071v3.089c0 0.941 0.173 1.63 0.518 2.071 0.464 0.607 1.107 0.911 1.929 0.911 0.857 0 1.5-0.316 1.929-0.946 0.214-0.321 0.339-0.643 0.375-0.964 0.023-0.107 0.036-0.452 0.036-1.036zM16.393 9.375v-3.75c0-0.821-0.255-1.232-0.768-1.232s-0.768 0.411-0.768 1.232v3.75c0 0.834 0.255 1.25 0.768 1.25s0.768-0.416 0.768-1.25zM29.232 22.786c0 2.786-0.155 4.87-0.464 6.25-0.166 0.702-0.512 1.291-1.036 1.768s-1.13 0.75-1.821 0.821c-2.191 0.25-5.495 0.375-9.911 0.375s-7.72-0.125-9.911-0.375c-0.691-0.071-1.3-0.345-1.83-0.821s-0.871-1.066-1.027-1.768c-0.309-1.334-0.464-3.416-0.464-6.25 0-2.786 0.155-4.87 0.464-6.25 0.166-0.702 0.513-1.291 1.036-1.768s1.138-0.755 1.839-0.839c2.179-0.238 5.477-0.357 9.893-0.357s7.72 0.12 9.911 0.357c0.691 0.084 1.3 0.363 1.83 0.839s0.871 1.066 1.027 1.768c0.309 1.334 0.464 3.416 0.464 6.25zM11.411 0h1.821l-2.161 7.125v4.839h-1.786v-4.839c-0.166-0.88-0.53-2.143-1.089-3.786-0.441-1.227-0.827-2.339-1.161-3.339h1.893l1.268 4.696 1.214-4.696zM18.018 5.946v3.125c0 0.964-0.166 1.666-0.5 2.107-0.441 0.607-1.071 0.911-1.893 0.911-0.798 0-1.423-0.304-1.875-0.911-0.334-0.452-0.5-1.155-0.5-2.107v-3.125c0-0.952 0.166-1.648 0.5-2.089 0.452-0.607 1.077-0.911 1.875-0.911 0.821 0 1.452 0.304 1.893 0.911 0.334 0.441 0.5 1.138 0.5 2.089zM24 3.054v8.911h-1.625v-0.982c-0.63 0.738-1.245 1.107-1.839 1.107-0.548 0-0.898-0.22-1.054-0.661-0.095-0.286-0.143-0.732-0.143-1.339v-7.036h1.625v6.554c0 0.393 0.005 0.602 0.018 0.625 0.036 0.262 0.161 0.393 0.375 0.393 0.321 0 0.661-0.255 1.018-0.768v-6.804h1.625z"></path>
</symbol>
</defs>
</svg>
