<svg style="position: absolute; width: 0; height: 0; overflow: hidden;" version="1.1" xmlns="http://www.w3.org/2000/svg" xmlns:xlink="http://www.w3.org/1999/xlink">
<defs>
<symbol id="social-amazon" viewBox="0 0 32 32">
<title>amazon</title>
<path class="path1" d="M 0.0585938 24.832031 C 0.15625 24.660156 0.308594 24.648438 0.523438 24.800781 C 5.371094 27.890625 10.648438 29.4375 16.347656 29.4375 C 20.148438 29.4375 23.902344 28.660156 27.605469 27.101562 C 27.703125 27.058594 27.84375 26.996094 28.027344 26.910156 C 28.214844 26.824219 28.34375 26.761719 28.421875 26.71875 C 28.710938 26.589844 28.941406 26.65625 29.105469 26.910156 C 29.269531 27.167969 29.21875 27.402344 28.945312 27.613281 C 28.597656 27.890625 28.148438 28.210938 27.605469 28.574219 C 25.9375 29.664062 24.078125 30.503906 22.023438 31.101562 C 19.964844 31.699219 17.957031 32 16 32 C 12.972656 32 10.113281 31.417969 7.417969 30.253906 C 4.722656 29.089844 2.308594 27.453125 0.175781 25.34375 C 0.0585938 25.234375 0 25.128906 0 25.023438 C 0 24.957031 0.0195312 24.894531 0.0585938 24.832031 Z M 8.816406 15.710938 C 8.816406 14.238281 9.144531 12.980469 9.804688 11.9375 C 10.464844 10.890625 11.363281 10.101562 12.507812 9.570312 C 13.554688 9.078125 14.847656 8.726562 16.378906 8.511719 C 16.902344 8.449219 17.753906 8.363281 18.9375 8.257812 L 18.9375 7.714844 C 18.9375 6.347656 18.800781 5.429688 18.53125 4.960938 C 18.125 4.320312 17.484375 4 16.609375 4 L 16.378906 4 C 15.738281 4.066406 15.183594 4.289062 14.71875 4.671875 C 14.253906 5.058594 13.953125 5.589844 13.816406 6.273438 C 13.742188 6.699219 13.546875 6.945312 13.238281 7.007812 L 9.890625 6.5625 C 9.5625 6.476562 9.394531 6.285156 9.394531 5.984375 C 9.394531 5.921875 9.40625 5.847656 9.425781 5.761719 C 9.753906 3.863281 10.566406 2.453125 11.855469 1.539062 C 13.144531 0.621094 14.652344 0.109375 16.378906 0 L 17.105469 0 C 19.316406 0 21.042969 0.632812 22.285156 1.890625 C 22.476562 2.105469 22.660156 2.332031 22.820312 2.578125 C 22.988281 2.824219 23.117188 3.042969 23.214844 3.234375 C 23.3125 3.425781 23.398438 3.703125 23.476562 4.066406 C 23.554688 4.429688 23.613281 4.679688 23.652344 4.816406 C 23.691406 4.957031 23.71875 5.253906 23.738281 5.714844 C 23.757812 6.171875 23.765625 6.445312 23.765625 6.527344 L 23.765625 14.273438 C 23.765625 14.828125 23.839844 15.332031 23.984375 15.792969 C 24.132812 16.25 24.273438 16.582031 24.40625 16.785156 C 24.542969 16.988281 24.765625 17.3125 25.078125 17.761719 C 25.191406 17.953125 25.25 18.121094 25.25 18.273438 C 25.25 18.441406 25.171875 18.589844 25.019531 18.71875 C 23.410156 20.253906 22.535156 21.085938 22.398438 21.214844 C 22.167969 21.40625 21.886719 21.429688 21.554688 21.28125 C 21.285156 21.023438 21.046875 20.777344 20.84375 20.542969 C 20.640625 20.308594 20.496094 20.136719 20.40625 20.03125 C 20.320312 19.925781 20.179688 19.71875 19.984375 19.40625 C 19.792969 19.097656 19.65625 18.890625 19.578125 18.785156 C 18.492188 20.085938 17.425781 20.894531 16.378906 21.214844 C 15.71875 21.429688 14.902344 21.535156 13.933594 21.535156 C 12.441406 21.535156 11.214844 21.027344 10.253906 20.015625 C 9.292969 19.003906 8.816406 17.566406 8.816406 15.710938 Z M 13.816406 15.070312 C 13.816406 15.902344 14.007812 16.570312 14.386719 17.070312 C 14.761719 17.574219 15.273438 17.824219 15.914062 17.824219 C 15.972656 17.824219 16.054688 17.8125 16.160156 17.792969 C 16.265625 17.769531 16.339844 17.761719 16.378906 17.761719 C 17.191406 17.523438 17.824219 16.949219 18.269531 16.03125 C 18.480469 15.625 18.640625 15.183594 18.75 14.703125 C 18.855469 14.222656 18.914062 13.835938 18.921875 13.535156 C 18.933594 13.238281 18.9375 12.746094 18.9375 12.066406 L 18.9375 11.265625 C 17.8125 11.265625 16.960938 11.351562 16.378906 11.519531 C 14.671875 12.054688 13.816406 13.238281 13.816406 15.070312 Z M 26.035156 25.375 C 26.074219 25.289062 26.132812 25.203125 26.210938 25.117188 C 26.695312 24.757812 27.160156 24.511719 27.605469 24.382812 C 28.34375 24.167969 29.0625 24.050781 29.761719 24.03125 C 29.953125 24.007812 30.136719 24.019531 30.3125 24.0625 C 31.183594 24.148438 31.710938 24.308594 31.882812 24.542969 C 31.960938 24.671875 32 24.863281 32 25.117188 L 32 25.34375 C 32 26.089844 31.816406 26.96875 31.449219 27.984375 C 31.078125 28.996094 30.566406 29.8125 29.90625 30.429688 C 29.808594 30.515625 29.722656 30.558594 29.644531 30.558594 C 29.605469 30.558594 29.566406 30.546875 29.527344 30.527344 C 29.410156 30.460938 29.382812 30.34375 29.441406 30.175781 C 30.15625 28.320312 30.515625 27.027344 30.515625 26.304688 C 30.515625 26.066406 30.476562 25.898438 30.398438 25.789062 C 30.207031 25.535156 29.664062 25.40625 28.769531 25.40625 C 28.441406 25.40625 28.054688 25.429688 27.605469 25.472656 C 27.121094 25.535156 26.675781 25.597656 26.269531 25.664062 C 26.152344 25.664062 26.074219 25.640625 26.035156 25.597656 C 25.996094 25.554688 25.988281 25.511719 26.007812 25.472656 C 26.007812 25.449219 26.015625 25.417969 26.035156 25.375 Z M 26.035156 25.375 "></path>
</symbol>
<symbol id="social-behance" viewBox="0 0 32 32">
<title>behance</title>
<path class="path1" d="M20.2 8h7.2v2.1h-7.2zM23.9 11.4c-6.7 0-6.7 6.7-6.7 6.7s-.5 6.6 6.7 6.6c0 0 5.9.3 5.9-4.6h-3.1s.1 1.9-2.8 1.9c0 0-3.1.2-3.1-3h9c.2 0 1.1-7.6-5.9-7.6zm-3 5.2s.4-2.7 3.1-2.7 2.6 2.7 2.6 2.7h-5.7zM13.3 14.9s2.6-.2 2.6-3.3C15.9 8.5 13.8 7 11 7H2v17.4h9s5.5.2 5.5-5.1c.1-.1.3-4.4-3.2-4.4zM6 10.1h5s1.2 0 1.2 1.8-.7 2.1-1.5 2.1H6v-3.9zm4.8 11.2H6v-4.6h5s1.8 0 1.8 2.4c.1 2-1.3 2.2-2 2.2z"></path>
</symbol>
<symbol id="social-bloglovin" viewBox="0 0 32 32">
<title>bloglovin</title>
<path class="path1" d="M16 28c-.27 0-.5-.093-.688-.282l-9.75-9.407c-.104-.083-.248-.217-.43-.406s-.47-.53-.868-1.023-.75-1-1.063-1.522-.59-1.152-.835-1.89S2 12.01 2 11.312c0-2.29.66-4.084 1.983-5.375S7.135 4 9.467 4c.646 0 1.305.112 1.977.336s1.296.527 1.875.907 1.074.737 1.492 1.07c.416.334.813.688 1.188 1.063.375-.375.77-.73 1.188-1.063s.914-.69 1.493-1.07 1.205-.682 1.876-.907S21.886 4 22.533 4c2.334 0 4.16.646 5.484 1.938S30 9.022 30 11.313c0 2.302-1.192 4.646-3.578 7.032l-9.734 9.375c-.188.188-.416.28-.688.28z"></path>
</symbol>
<symbol id="social-dribbble" viewBox="0 0 32 32">
<title>dribbble</title>
<path class="path1" d="M20.571 26.786q-.75-4.304-2.5-8.893h-.036l-.036.018q-.286.107-.768.295t-1.804.875-2.446 1.464-2.339 2.045-1.839 2.643l-.268-.196q3.286 2.679 7.464 2.679 2.357 0 4.571-.929zm-3.303-10.84q-.375-.875-.946-1.982-5.554 1.661-12.018 1.661-.018.125-.018.375 0 2.214.786 4.223t2.214 3.598q.893-1.589 2.205-2.973t2.545-2.223 2.33-1.446 1.777-.857l.661-.232q.071-.018.232-.063t.232-.08zm-1.911-3.785Q13.214 8.357 11 5.411 8.536 6.572 6.821 8.732t-2.286 4.857q5.393 0 10.821-1.429zm12.214 5.696q-3.75-1.071-7.304-.518 1.554 4.268 2.286 8.375 1.982-1.339 3.304-3.384t1.714-4.473zM13.196 4.625q-.018 0-.036.018.018-.018.036-.018zm10.536 2.589Q20.428 4.285 16 4.285q-1.357 0-2.768.339 2.339 3.036 4.393 6.821 1.232-.464 2.321-1.08t1.723-1.098 1.17-1.018.67-.723zm3.982 8.661q-.054-4.143-2.661-7.321l-.018.018q-.161.214-.339.438t-.777.795-1.268 1.08-1.786 1.161-2.348 1.152q.446.946.786 1.696.036.107.116.313t.134.295q.643-.089 1.33-.125t1.313-.036 1.232.027 1.143.071 1.009.098.857.116.652.107.446.08zm2 .125q0 3.732-1.839 6.884t-4.991 4.991T16 29.714t-6.884-1.839-4.991-4.991T2.286 16t1.839-6.884 4.991-4.991T16 2.286t6.884 1.839 4.991 4.991T29.714 16z"></path>
</symbol>
<symbol id="social-email" viewBox="0 0 32 32">
<title>email</title>
<path class="path1" d="M28.002 24.457V12.466c-.334.375-.693.718-1.077 1.03-2.789 2.145-5.007 3.904-6.652 5.277-.53.448-.962.796-1.296 1.046s-.784.502-1.35.757c-.568.255-1.1.382-1.6.382h-.03c-.5 0-1.034-.127-1.6-.382-.568-.255-1.018-.507-1.35-.757-.334-.25-.764-.598-1.296-1.046-1.645-1.373-3.862-3.134-6.652-5.277-.386-.313-.745-.655-1.077-1.03v11.991c0 .136.05.252.148.352.098.098.216.148.352.148h22.984c.136 0 .252-.05.352-.148.095-.098.145-.216.145-.352zm0-16.409v-.382l-.007-.204-.046-.195-.086-.141-.141-.118-.218-.039H4.518c-.136 0-.252.05-.352.148-.098.098-.148.216-.148.352 0 1.748.764 3.227 2.295 4.434 2.009 1.582 4.096 3.232 6.261 4.95.063.052.245.205.546.461s.541.45.718.586c.177.136.409.3.695.491.286.193.548.336.789.429.239.093.463.141.671.141h.03c.209 0 .432-.046.671-.141.239-.093.502-.238.789-.429.286-.193.518-.357.695-.491.177-.136.416-.33.718-.586s.484-.409.546-.461c2.164-1.718 4.252-3.368 6.261-4.95.563-.448 1.086-1.048 1.57-1.804.486-.754.729-1.438.729-2.052zM30 7.47v16.988c0 .688-.245 1.275-.734 1.764s-1.077.734-1.764.734H4.518c-.688 0-1.275-.245-1.764-.734s-.734-1.077-.734-1.764V7.47c0-.688.245-1.275.734-1.764s1.077-.734 1.764-.734h22.984c.688 0 1.275.245 1.764.734S30 6.783 30 7.47z"></path>
</symbol>
<symbol id="social-facebook" viewBox="0 0 32 32">
<title>facebook</title>
<path class="path1" d="M23.738.214v4.714h-2.804c-1.023 0-1.714.214-2.071.643s-.536 1.071-.536 1.929v3.375h5.232l-.696 5.286h-4.536v13.554h-5.464V16.161H8.309v-5.286h4.554V6.982c0-2.214.62-3.932 1.857-5.152S17.607 0 19.666 0c1.75 0 3.107.071 4.071.214z"></path>
</symbol>
<symbol id="social-flickr" viewBox="0 0 32 32">
<title>flickr</title>
<path class="path1" d="M14.032 16.007c0-1.664-.586-3.08-1.757-4.25S9.689 10 8.025 10s-3.08.586-4.25 1.757-1.757 2.588-1.757 4.25.586 3.08 1.757 4.25c1.17 1.17 2.588 1.757 4.25 1.757s3.08-.586 4.25-1.757c1.171-1.17 1.757-2.586 1.757-4.25zm15.982 0c0-1.664-.586-3.08-1.757-4.25S25.67 10 24.007 10s-3.08.586-4.25 1.757c-1.17 1.17-1.757 2.588-1.757 4.25s.586 3.08 1.757 4.25c1.17 1.17 2.587 1.757 4.25 1.757s3.08-.586 4.25-1.757c1.171-1.17 1.757-2.586 1.757-4.25z"></path>
</symbol>
<symbol id="social-github" viewBox="0 0 32 32">
<title>github</title>
<path class="path1" d="M 14.535156 2.800781 C 8.398438 3.464844 3.464844 8.398438 2.800781 14.398438 C 2.132812 20.667969 5.734375 26.265625 11.199219 28.398438 C 11.601562 28.535156 12 28.265625 12 27.734375 L 12 25.601562 C 12 25.601562 11.464844 25.734375 10.800781 25.734375 C 8.933594 25.734375 8.132812 24.132812 8 23.199219 C 7.867188 22.667969 7.601562 22.265625 7.199219 21.867188 C 6.800781 21.734375 6.667969 21.734375 6.667969 21.601562 C 6.667969 21.332031 7.066406 21.332031 7.199219 21.332031 C 8 21.332031 8.667969 22.265625 8.933594 22.667969 C 9.601562 23.734375 10.398438 24 10.800781 24 C 11.332031 24 11.734375 23.867188 12 23.734375 C 12.132812 22.800781 12.535156 21.867188 13.332031 21.332031 C 10.265625 20.667969 8 18.933594 8 16 C 8 14.535156 8.667969 13.066406 9.601562 12 C 9.464844 11.734375 9.332031 11.066406 9.332031 10.132812 C 9.332031 9.601562 9.332031 8.800781 9.734375 8 C 9.734375 8 11.601562 8 13.464844 9.734375 C 14.132812 9.464844 15.066406 9.332031 16 9.332031 C 16.933594 9.332031 17.867188 9.464844 18.667969 9.734375 C 20.398438 8 22.398438 8 22.398438 8 C 22.667969 8.800781 22.667969 9.601562 22.667969 10.132812 C 22.667969 11.199219 22.535156 11.734375 22.398438 12 C 23.332031 13.066406 24 14.398438 24 16 C 24 18.933594 21.734375 20.667969 18.667969 21.332031 C 19.464844 22 20 23.199219 20 24.398438 L 20 27.867188 C 20 28.265625 20.398438 28.667969 20.933594 28.535156 C 25.867188 26.535156 29.332031 21.734375 29.332031 16.132812 C 29.332031 8.132812 22.535156 1.867188 14.535156 2.800781 Z M 14.535156 2.800781 "></path>
</symbol>
<symbol id="social-goodreads" viewBox="0 0 32 32">
<title>goodreads</title>
<path class="path1" d="M 26.035156 21.300781 L 26.035156 0.652344 L 23.289062 0.652344 L 23.289062 4.527344 L 23.203125 4.527344 C 22.921875 3.921875 22.5625 3.339844 22.078125 2.785156 C 21.601562 2.234375 21.058594 1.75 20.4375 1.328125 C 19.816406 0.90625 19.15625 0.578125 18.410156 0.34375 C 17.675781 0.121094 16.890625 0 16.050781 0 C 14.4375 0 12.984375 0.300781 11.722656 0.894531 C 10.460938 1.488281 9.398438 2.300781 8.542969 3.332031 C 7.6875 4.363281 7.03125 5.566406 6.582031 6.949219 C 6.132812 8.332031 5.90625 9.785156 5.90625 11.324219 C 5.90625 12.925781 6.097656 14.425781 6.476562 15.835938 C 6.855469 17.242188 7.457031 18.46875 8.296875 19.515625 C 9.140625 20.558594 10.179688 21.378906 11.464844 21.960938 C 12.746094 22.542969 14.289062 22.84375 16.09375 22.84375 C 17.757812 22.84375 19.199219 22.421875 20.441406 21.582031 C 21.683594 20.738281 22.625 19.617188 23.269531 18.214844 L 23.347656 18.214844 L 23.347656 21.261719 C 23.347656 23.984375 22.789062 26.070312 21.664062 27.535156 C 20.542969 28.976562 18.699219 29.71875 16.136719 29.71875 C 15.375 29.71875 14.632812 29.636719 13.910156 29.476562 C 13.1875 29.316406 12.53125 29.054688 11.929688 28.714844 C 11.34375 28.355469 10.824219 27.914062 10.402344 27.332031 C 9.984375 26.753906 9.703125 26.050781 9.5625 25.207031 L 6.753906 25.207031 C 6.839844 26.390625 7.171875 27.414062 7.734375 28.273438 C 8.300781 29.136719 9.015625 29.835938 9.871094 30.398438 C 10.726562 30.941406 11.691406 31.339844 12.765625 31.601562 C 13.847656 31.859375 14.953125 32 16.09375 32 C 17.9375 32 19.480469 31.742188 20.738281 31.261719 C 22.003906 30.761719 23.023438 30.058594 23.808594 29.117188 C 24.609375 28.171875 25.167969 27.050781 25.53125 25.710938 C 25.890625 24.367188 26.09375 22.863281 26.09375 21.21875 Z M 16.054688 20.558594 C 14.78125 20.558594 13.675781 20.308594 12.75 19.796875 C 11.820312 19.292969 11.046875 18.621094 10.441406 17.792969 C 9.816406 16.964844 9.378906 16.019531 9.078125 14.941406 C 8.777344 13.867188 8.632812 12.765625 8.632812 11.628906 C 8.632812 10.46875 8.773438 9.332031 9.035156 8.214844 C 9.316406 7.09375 9.757812 6.097656 10.359375 5.226562 C 10.960938 4.355469 11.742188 3.652344 12.664062 3.113281 C 13.585938 2.578125 14.707031 2.308594 16.007812 2.308594 C 17.3125 2.308594 18.414062 2.585938 19.335938 3.136719 C 20.238281 3.6875 21 4.414062 21.578125 5.316406 C 22.160156 6.21875 22.582031 7.21875 22.84375 8.320312 C 23.101562 9.421875 23.222656 10.53125 23.222656 11.628906 C 23.222656 12.765625 23.0625 13.867188 22.761719 14.941406 C 22.460938 16.019531 22 16.964844 21.378906 17.792969 C 20.757812 18.621094 20.015625 19.292969 19.113281 19.796875 C 18.214844 20.308594 17.171875 20.558594 15.96875 20.558594 Z M 16.054688 20.558594 "></path>
</symbol>
<symbol id="social-instagram" viewBox="0 0 32 32">
<title>instagram</title>
<path class="path1" d="M29.448 15.936c0 2.661-.029 4.502-.087 5.525-.116 2.416-.836 4.288-2.161 5.613s-3.195 2.045-5.613 2.161c-1.023.057-2.864.087-5.525.087s-4.502-.029-5.525-.087c-2.416-.116-4.287-.836-5.612-2.161s-2.045-3.195-2.161-5.613c-.059-1.021-.087-2.864-.087-5.525s.029-4.502.087-5.525c.116-2.416.836-4.287 2.161-5.612s3.195-2.045 5.612-2.161c1.021-.057 2.864-.087 5.525-.087s4.502.029 5.525.087c2.416.116 4.288.836 5.613 2.161s2.045 3.195 2.161 5.612c.059 1.023.087 2.864.087 5.525zM17.396 4.948c-.807.005-1.252.009-1.334.009s-.525-.004-1.334-.009c-.807-.005-1.42-.005-1.839 0-.418.005-.979.023-1.682.052s-1.302.088-1.795.175c-.495.088-.909.195-1.246.323-.58.232-1.093.57-1.534 1.011s-.779.954-1.011 1.534c-.129.338-.236.752-.323 1.246s-.145 1.093-.175 1.795c-.029.704-.046 1.264-.052 1.682s-.005 1.032 0 1.839c.005.807.009 1.252.009 1.334s-.004.525-.009 1.334c-.005.807-.005 1.42 0 1.839.005.418.023.979.052 1.682s.088 1.302.175 1.795c.088.495.195.909.323 1.246.232.58.57 1.093 1.011 1.534s.952.779 1.534 1.011c.338.129.752.236 1.246.323.493.087 1.093.145 1.795.175.704.029 1.264.046 1.682.052s1.03.005 1.839 0c.807-.005 1.252-.009 1.334-.009.08 0 .525.004 1.334.009.807.005 1.42.005 1.839 0 .418-.005.979-.023 1.682-.052s1.302-.087 1.795-.175c.493-.087.909-.195 1.246-.323.58-.232 1.093-.57 1.534-1.011s.779-.952 1.011-1.534c.129-.337.236-.752.323-1.246.087-.493.145-1.093.175-1.795.029-.704.046-1.264.052-1.682s.005-1.03 0-1.839c-.005-.807-.009-1.252-.009-1.334 0-.08.004-.525.009-1.334.005-.807.005-1.42 0-1.839-.005-.418-.023-.979-.052-1.682s-.087-1.302-.175-1.795c-.087-.493-.195-.909-.323-1.246-.232-.58-.57-1.093-1.011-1.534s-.954-.779-1.534-1.011c-.337-.129-.752-.236-1.246-.323S21.619 5.03 20.917 5c-.704-.029-1.264-.046-1.682-.052-.418-.007-1.03-.007-1.839 0zm3.531 6.125c1.336 1.336 2.004 2.957 2.004 4.862s-.668 3.527-2.004 4.863c-1.336 1.336-2.957 2.004-4.863 2.004s-3.527-.668-4.863-2.004c-1.338-1.336-2.005-2.957-2.005-4.863s.668-3.527 2.004-4.863c1.336-1.336 2.957-2.004 4.863-2.004 1.907 0 3.527.668 4.864 2.004zm-1.709 8.018c.871-.871 1.307-1.923 1.307-3.155s-.436-2.284-1.307-3.155-1.923-1.307-3.155-1.307-2.284.436-3.155 1.307-1.307 1.923-1.307 3.155.436 2.284 1.307 3.155 1.923 1.307 3.155 1.307 2.284-.436 3.155-1.307zm5.125-11.434c.314.314.471.691.471 1.132s-.157.82-.471 1.132c-.314.314-.691.471-1.132.471s-.82-.157-1.132-.471c-.314-.314-.471-.691-.471-1.132s.157-.82.471-1.132c.314-.314.691-.471 1.132-.471.441.002.818.159 1.132.471z"></path>
</symbol>
<symbol id="social-linkedin" viewBox="0 0 32 32">
<title>linkedin</title>
<path class="path1" d="M8.518 11.161v17.696H2.625V11.161h5.893zm.375-5.465Q8.911 7 7.991 7.875t-2.42.875h-.036q-1.464 0-2.357-.875t-.893-2.179q0-1.321.92-2.188t2.402-.866 2.375.866.911 2.188zm20.821 13.018v10.143h-5.875v-9.464q0-1.875-.723-2.938t-2.259-1.063q-1.125 0-1.884.616t-1.134 1.527q-.196.536-.196 1.446v9.875h-5.875q.036-7.125.036-11.554t-.018-5.286l-.018-.857h5.875v2.571h-.036q.357-.571.732-1t1.009-.929 1.554-.777 2.045-.277q3.054 0 4.911 2.027t1.857 5.938z"></path>
</symbol>
<symbol id="social-medium" viewBox="0 0 32 32">
<title>medium</title>
<path d="M3.5 8.3c.05-.4-.1-.8-.4-1.07L.02 3.55V3h9.5l7.34 16.1L23.32 3h9.06v.55l-2.62 2.5a.77.77 0 0 0-.29.74V25.2c-.04.28.07.56.3.73l2.55 2.51V29H19.47v-.55l2.65-2.57c.26-.26.26-.33.26-.73v-14.9l-7.36 18.7h-1l-8.56-18.7v12.53c-.07.53.1 1.06.48 1.44l3.44 4.17v.55H-.38v-.55l3.44-4.17c.37-.38.53-.92.44-1.44V8.3z"></path>
</symbol>
<symbol id="social-meetup" viewBox="0 0 32 32">
<title>meetup</title>
<path d="M 28.636719 26.269531 C 29.808594 26.472656 30.964844 26.667969 31.152344 28.125 C 31.640625 32 25.5625 30.558594 24.171875 29.71875 C 21.992188 28.398438 20.667969 25.378906 21.234375 22.402344 C 21.453125 21.25 22.632812 18.269531 23.742188 15.460938 C 24.785156 12.828125 25.761719 10.355469 25.835938 9.679688 C 25.988281 8.25 25.375 8.128906 24.988281 8.109375 C 24.492188 8.078125 24.101562 8.375 23.617188 9.28125 C 23.308594 9.851562 20.839844 15.90625 19.1875 19.953125 C 18.441406 21.785156 17.863281 23.207031 17.726562 23.519531 C 16.949219 25.332031 15.96875 25.769531 14.988281 25.707031 C 13.554688 25.613281 12.898438 24.664062 13.105469 22.957031 C 13.160156 22.496094 13.859375 20.382812 14.617188 18.097656 C 15.507812 15.394531 16.480469 12.449219 16.570312 11.699219 C 16.667969 10.84375 16.53125 9.9375 15.847656 9.503906 C 15.160156 9.0625 14.351562 9.730469 14.105469 10.238281 C 13.945312 10.570312 12.84375 14.039062 11.679688 17.695312 C 10.394531 21.726562 9.035156 25.988281 8.785156 26.550781 C 7.957031 28.417969 7.082031 29.007812 5.769531 29.085938 C 2.664062 29.269531 0.359375 26.109375 1.375 22.238281 C 1.460938 21.917969 1.628906 21.207031 1.863281 20.238281 C 2.890625 15.996094 5.101562 6.816406 6.335938 4.105469 C 7.351562 1.867188 10.183594 0.171875 12.144531 1.21875 C 12.789062 1.566406 13.589844 2.039062 14.195312 2.398438 C 14.546875 2.605469 14.832031 2.773438 14.984375 2.859375 C 15.824219 3.320312 16.714844 2.285156 17.195312 1.726562 C 17.265625 1.648438 17.324219 1.582031 17.375 1.527344 C 17.421875 1.472656 17.46875 1.421875 17.515625 1.371094 C 17.871094 0.984375 18.226562 0.601562 18.664062 0.371094 C 19.15625 0.109375 19.929688 0 20.527344 0.109375 C 21.128906 0.21875 21.488281 0.5 21.710938 0.71875 C 22.078125 1.085938 22.332031 1.382812 22.648438 1.757812 L 22.839844 1.988281 C 23.417969 2.664062 23.84375 2.34375 24.15625 2.109375 L 24.234375 2.054688 L 24.25 2.042969 C 24.789062 1.652344 25.21875 1.34375 26.816406 1.378906 C 28.472656 1.414062 30.378906 2.148438 30.777344 5.644531 C 30.992188 7.53125 29.785156 10.859375 28.53125 14.316406 C 27.203125 17.976562 25.820312 21.785156 26.023438 24.171875 C 26.167969 25.847656 27.40625 26.0625 28.636719 26.269531 Z M 28.636719 26.269531 "></path>
</symbol>
<symbol id="social-periscope" viewBox="0 0 32 32">
<title>periscope</title>
<path class="path1" d="M16.032.002C9.636.002 4.45 5.186 4.45 11.582c0 8.611 9.261 18.073 11.58 18.073s11.58-9.462 11.58-18.073C27.612 5.186 22.426.002 16.031.002zm0 18.644c-3.88 0-7.027-3.146-7.027-7.027 0-1.537.496-2.961 1.334-4.118.089 1.486 1.321 2.664 2.829 2.664 1.568 0 2.838-1.271 2.838-2.838 0-1.12-.65-2.086-1.593-2.546.52-.123 1.061-.189 1.618-.189 3.88 0 7.027 3.146 7.027 7.027 0 3.882-3.145 7.027-7.025 7.027z"></path>
</symbol>
<symbol id="social-phone" viewBox="0 0 32 32">
<title>phone</title>
<path class="path1" d="M28.571 22.143q0 .482-.179 1.259t-.375 1.223q-.375.893-2.179 1.893-1.679.911-3.321.911-.482 0-.938-.063t-1.027-.223-.848-.259-.991-.366-.875-.321q-1.75-.625-3.125-1.482-2.286-1.411-4.723-3.848t-3.848-4.723q-.857-1.375-1.482-3.125-.054-.161-.321-.875t-.366-.991-.259-.848-.223-1.027-.063-.938q0-1.643.911-3.321 1-1.804 1.893-2.179.446-.196 1.223-.375t1.259-.179q.25 0 .375.054.321.107.946 1.357.196.339.536.964t.625 1.134.554.955q.054.071.313.446t.384.634.125.509q0 .357-.509.893t-1.107.982-1.107.946-.509.821q0 .161.089.402t.152.366.25.429.205.339q1.357 2.446 3.107 4.196t4.196 3.107q.036.018.339.205t.429.25.366.152.402.089q.321 0 .821-.509t.946-1.107.982-1.107.893-.509q.25 0 .509.125t.634.384.446.313q.446.268.955.554t1.134.625.964.536q1.25.625 1.357.946.054.125.054.375z"></path>
</symbol>
<symbol id="social-pinterest" viewBox="0 0 32 32">
<title>pinterest</title>
<path class="path1" d="M4.571 10.661q0-1.929.67-3.634t1.848-2.973 2.714-2.196T13.107.465t3.607-.464q2.821 0 5.25 1.188t3.946 3.455 1.518 5.125q0 1.714-.339 3.357t-1.071 3.161-1.786 2.67-2.589 1.839-3.375.688q-1.214 0-2.411-.571t-1.714-1.571q-.179.696-.5 2.009t-.42 1.696-.366 1.268-.464 1.268-.571 1.116-.821 1.384-1.107 1.545l-.25.089-.161-.179q-.268-2.804-.268-3.357 0-1.643.384-3.688t1.188-5.134.929-3.625q-.571-1.161-.571-3.018 0-1.482.929-2.786t2.357-1.304q1.089 0 1.696.723t.607 1.83q0 1.179-.786 3.411t-.786 3.339q0 1.125.804 1.866t1.946.741q.982 0 1.821-.446t1.402-1.214 1-1.696.679-1.973.357-1.982.116-1.777q0-3.089-1.955-4.813t-5.098-1.723q-3.571 0-5.964 2.313t-2.393 5.866q0 .786.223 1.518t.482 1.161.482.813.223.545q0 .5-.268 1.304t-.661.804q-.036 0-.304-.054-.911-.268-1.616-1t-1.089-1.688-.58-1.929-.196-1.902z"></path>
</symbol>
<symbol id="social-reddit" viewBox="0 0 32 32">
<title>reddit</title>
<path class="path1" d="M 18.984375 20.464844 C 19.097656 20.574219 19.097656 20.757812 18.984375 20.871094 C 18.363281 21.488281 17.390625 21.789062 16.007812 21.789062 L 16 21.785156 L 15.988281 21.789062 C 14.605469 21.789062 13.632812 21.488281 13.011719 20.871094 C 12.898438 20.757812 12.898438 20.574219 13.011719 20.464844 C 13.125 20.351562 13.308594 20.351562 13.421875 20.464844 C 13.929688 20.964844 14.765625 21.210938 15.988281 21.210938 L 16 21.214844 L 16.007812 21.210938 C 17.230469 21.210938 18.066406 20.964844 18.574219 20.464844 C 18.6875 20.351562 18.871094 20.351562 18.984375 20.464844 Z M 14.398438 17.238281 C 14.398438 16.5625 13.84375 16.015625 13.167969 16.015625 C 12.488281 16.015625 11.9375 16.5625 11.9375 17.238281 C 11.9375 17.914062 12.488281 18.464844 13.167969 18.464844 C 13.84375 18.464844 14.398438 17.914062 14.398438 17.238281 Z M 32 16 C 32 24.835938 24.835938 32 16 32 C 7.164062 32 0 24.835938 0 16 C 0 7.164062 7.164062 0 16 0 C 24.835938 0 32 7.164062 32 16 Z M 25.332031 15.828125 C 25.332031 14.691406 24.40625 13.769531 23.265625 13.769531 C 22.710938 13.769531 22.207031 13.992188 21.835938 14.351562 C 20.425781 13.425781 18.519531 12.835938 16.414062 12.757812 L 17.566406 9.125 L 20.691406 9.859375 L 20.6875 9.902344 C 20.6875 10.832031 21.445312 11.585938 22.378906 11.585938 C 23.308594 11.585938 24.066406 10.832031 24.066406 9.902344 C 24.066406 8.976562 23.308594 8.222656 22.378906 8.222656 C 21.660156 8.222656 21.050781 8.667969 20.804688 9.292969 L 17.4375 8.503906 C 17.292969 8.46875 17.140625 8.554688 17.097656 8.699219 L 15.808594 12.746094 C 13.601562 12.773438 11.601562 13.371094 10.132812 14.324219 C 9.761719 13.984375 9.273438 13.769531 8.730469 13.769531 C 7.59375 13.769531 6.667969 14.691406 6.667969 15.828125 C 6.667969 16.582031 7.082031 17.234375 7.691406 17.59375 C 7.652344 17.8125 7.625 18.035156 7.625 18.261719 C 7.625 21.300781 11.363281 23.777344 15.960938 23.777344 C 20.558594 23.777344 24.296875 21.300781 24.296875 18.261719 C 24.296875 18.046875 24.277344 17.839844 24.238281 17.632812 C 24.886719 17.285156 25.332031 16.609375 25.332031 15.828125 Z M 18.835938 16.015625 C 18.160156 16.015625 17.609375 16.566406 17.609375 17.242188 C 17.609375 17.914062 18.160156 18.464844 18.835938 18.464844 C 19.515625 18.464844 20.066406 17.914062 20.066406 17.242188 C 20.066406 16.566406 19.515625 16.015625 18.835938 16.015625 Z M 18.835938 16.015625 "></path>
</symbol>
<symbol id="social-rss" viewBox="0 0 32 32">
<title>rss</title>
<path class="path1" d="M10.286 24q0 1.429-1 2.429t-2.429 1-2.429-1-1-2.429 1-2.429 2.429-1 2.429 1 1 2.429zm9.143 2.196q.036.5-.304.857-.321.375-.839.375h-2.411q-.446 0-.768-.295t-.357-.741q-.393-4.089-3.295-6.991t-6.991-3.295q-.446-.036-.741-.357t-.295-.768V12.57q0-.518.375-.839.304-.304.768-.304h.089q2.857.232 5.464 1.438t4.625 3.241q2.036 2.018 3.241 4.625t1.438 5.464zm9.142.036q.036.482-.321.839-.321.357-.821.357h-2.554q-.464 0-.795-.313t-.348-.759q-.214-3.839-1.804-7.295t-4.134-6-6-4.134-7.295-1.821q-.446-.018-.759-.348t-.313-.777V3.427q0-.5.357-.821.321-.321.786-.321h.054q4.679.232 8.955 2.143t7.598 5.25q3.339 3.321 5.25 7.598t2.143 8.955z"></path>
</symbol>
<symbol id="social-snapchat" viewBox="0 0 32 32">
<title>snapchat</title>
<path class="path1" d="M16.355 2.455c1.563-.011 2.964.388 4.207 1.198 1.241.811 2.195 1.932 2.861 3.368.314.677.471 1.72.471 3.13 0 .548-.052 1.662-.157 3.341.163.082.327.123.489.123.209 0 .507-.079.891-.236.386-.157.682-.236.893-.236.337 0 .664.105.98.314.314.211.473.479.473.805 0 .373-.184.688-.552.945s-.77.441-1.207.552c-.438.111-.839.28-1.207.507s-.552.505-.552.83c0 .175.07.425.211.752.432.957 1.029 1.83 1.793 2.623s1.605 1.382 2.527 1.766c.327.139.793.273 1.4.402.327.07.489.275.489.613 0 .816-1.277 1.418-3.83 1.802-.082.129-.146.355-.193.682s-.129.598-.245.813c-.116.216-.309.323-.577.323-.234 0-.595-.038-1.084-.114-.489-.075-.863-.114-1.12-.114-.432 0-.793.029-1.084.087-.373.059-.741.189-1.102.393s-.7.425-1.014.664c-.314.239-.654.475-1.014.709s-.805.429-1.329.586c-.525.157-1.102.236-1.732.236-.607 0-1.17-.079-1.688-.236-.52-.157-.957-.354-1.313-.586-.355-.234-.691-.47-1.005-.709s-.654-.461-1.014-.664c-.361-.204-.723-.336-1.084-.393-.304-.059-.671-.087-1.102-.087-.28 0-.662.045-1.145.13-.484.087-.825.13-1.023.13-.291 0-.496-.107-.612-.323s-.198-.493-.245-.83c-.046-.337-.111-.571-.193-.7-2.554-.384-3.83-.986-3.83-1.802 0-.337.163-.543.489-.613.605-.129 1.073-.262 1.4-.402.909-.373 1.752-.962 2.527-1.766.775-.805 1.373-1.679 1.793-2.623.139-.327.209-.577.209-.752 0-.327-.184-.604-.552-.83s-.773-.4-1.216-.516c-.443-.116-.848-.3-1.216-.552-.368-.25-.552-.557-.552-.918 0-.314.152-.58.455-.796s.623-.323.963-.323c.175 0 .455.075.839.227.386.152.693.227.927.227.211 0 .396-.041.561-.123-.105-1.655-.157-2.764-.157-3.323 0-1.423.157-2.471.473-3.148.746-1.598 1.748-2.752 3.009-3.462 1.257-.711 2.796-1.077 4.614-1.1z"></path>
</symbol>
<symbol id="social-tiktok" viewBox="0 0 32 32">
<title>tiktok</title>
<path class="path1" d="M16.708 0.027c1.745-0.027 3.48-0.011 5.213-0.027 0.105 2.041 0.839 4.12 2.333 5.563 1.491 1.479 3.6 2.156 5.652 2.385v5.369c-1.923-0.063-3.855-0.463-5.6-1.291-0.76-0.344-1.468-0.787-2.161-1.24-0.009 3.896 0.016 7.787-0.025 11.667-0.104 1.864-0.719 3.719-1.803 5.255-1.744 2.557-4.771 4.224-7.88 4.276-1.907 0.109-3.812-0.411-5.437-1.369-2.693-1.588-4.588-4.495-4.864-7.615-0.032-0.667-0.043-1.333-0.016-1.984 0.24-2.537 1.495-4.964 3.443-6.615 2.208-1.923 5.301-2.839 8.197-2.297 0.027 1.975-0.052 3.948-0.052 5.923-1.323-0.428-2.869-0.308-4.025 0.495-0.844 0.547-1.485 1.385-1.819 2.333-0.276 0.676-0.197 1.427-0.181 2.145 0.317 2.188 2.421 4.027 4.667 3.828 1.489-0.016 2.916-0.88 3.692-2.145 0.251-0.443 0.532-0.896 0.547-1.417 0.131-2.385 0.079-4.76 0.095-7.145 0.011-5.375-0.016-10.735 0.025-16.093z"></path>
</symbol>
<symbol id="social-tripadvisor" viewBox="0 0 32 32">
<title>tripadvisor</title>
<path class="path1" d="M 32 9.613281 L 27.472656 9.613281 C 24.335938 7.480469 20.5 6.398438 16 6.398438 C 11.5 6.398438 7.660156 7.480469 4.527344 9.613281 L 0 9.613281 C 0.683594 10.285156 1.324219 11.757812 1.589844 12.878906 C 0.5625 14.242188 0.00390625 15.90625 0 17.613281 C 0 22.023438 3.589844 25.613281 8 25.613281 C 10.039062 25.609375 12 24.820312 13.476562 23.414062 L 16 27.199219 L 18.523438 23.414062 C 20 24.824219 21.960938 25.613281 24 25.617188 C 28.410156 25.617188 32 22.027344 32 17.617188 C 32 15.835938 31.398438 14.207031 30.410156 12.878906 C 30.675781 11.761719 31.316406 10.289062 32 9.617188 Z M 8 23.054688 C 5 23.054688 2.558594 20.613281 2.558594 17.613281 C 2.558594 14.613281 5 12.175781 8 12.175781 C 11 12.175781 13.441406 14.613281 13.441406 17.613281 C 13.441406 20.613281 11 23.054688 8 23.054688 Z M 16 17.613281 C 15.996094 13.808594 13.3125 10.535156 9.585938 9.773438 C 11.511719 9.125 13.648438 8.800781 16 8.800781 C 18.351562 8.800781 20.488281 9.125 22.414062 9.777344 C 18.6875 10.535156 16.007812 13.808594 16 17.613281 Z M 24 23.054688 C 21 23.054688 18.558594 20.613281 18.558594 17.613281 C 18.558594 14.613281 21 12.175781 24 12.175781 C 27 12.175781 29.441406 14.613281 29.441406 17.613281 C 29.441406 20.613281 27 23.054688 24 23.054688 Z M 8 14.175781 C 6.105469 14.175781 4.558594 15.71875 4.558594 17.617188 C 4.558594 19.511719 6.105469 21.054688 8 21.054688 C 9.894531 21.054688 11.441406 19.511719 11.441406 17.617188 C 11.441406 15.71875 9.894531 14.175781 8 14.175781 Z M 8 18.640625 C 7.425781 18.640625 6.960938 18.175781 6.960938 17.601562 C 6.960938 17.027344 7.425781 16.5625 8 16.5625 C 8.574219 16.5625 9.039062 17.027344 9.039062 17.601562 C 9.039062 18.175781 8.574219 18.640625 8 18.640625 Z M 24 14.175781 C 22.105469 14.175781 20.558594 15.71875 20.558594 17.617188 C 20.558594 19.511719 22.105469 21.054688 24 21.054688 C 25.894531 21.054688 27.441406 19.511719 27.441406 17.617188 C 27.441406 15.71875 25.894531 14.175781 24 14.175781 Z M 24 18.640625 C 23.425781 18.640625 22.960938 18.175781 22.960938 17.601562 C 22.960938 17.027344 23.425781 16.5625 24 16.5625 C 24.574219 16.5625 25.039062 17.027344 25.039062 17.601562 C 25.039062 18.175781 24.574219 18.640625 24 18.640625 Z M 24 18.640625 "></path>
</symbol>
<symbol id="social-tumblr" viewBox="0 0 32 32">
<title>tumblr</title>
<path class="path1" d="M23.141 23.732l1.429 4.232c-.273.416-.934.809-1.982 1.179s-2.102.559-3.161.571c-1.238.023-2.371-.13-3.402-.464s-1.879-.773-2.545-1.321-1.232-1.179-1.696-1.893-.795-1.429-.991-2.143-.295-1.416-.295-2.107v-9.714h-3V8.233c.857-.309 1.625-.723 2.304-1.241s1.22-1.054 1.625-1.607.75-1.161 1.036-1.821.488-1.25.607-1.768.209-1.045.268-1.58c.012-.059.039-.111.08-.152s.088-.063.134-.063h4.357v7.571h5.946v4.5h-5.964v9.25c0 .357.039.691.116 1s.211.621.402.938.486.563.884.741.884.262 1.455.25c.929-.023 1.727-.196 2.393-.518z"></path>
</symbol>
<symbol id="social-twitter" viewBox="0 0 32 32">
<title>twitter</title>
<path class="path1" d="M30.071 7.286q-1.196 1.75-2.893 2.982.018.25.018.75 0 2.321-.679 4.634t-2.063 4.437-3.295 3.759-4.607 2.607-5.768.973q-4.839 0-8.857-2.589.625.071 1.393.071 4.018 0 7.161-2.464-1.875-.036-3.357-1.152t-2.036-2.848q.589.089 1.089.089.768 0 1.518-.196-2-.411-3.313-1.991t-1.313-3.67v-.071q1.214.679 2.607.732-1.179-.786-1.875-2.054t-.696-2.75q0-1.571.786-2.911Q6.052 8.285 9.15 9.883t6.634 1.777q-.143-.679-.143-1.321 0-2.393 1.688-4.08t4.08-1.688q2.5 0 4.214 1.821 1.946-.375 3.661-1.393-.661 2.054-2.536 3.179 1.661-.179 3.321-.893z"></path>
</symbol>
<symbol id="social-vimeo" viewBox="0 0 32 32">
<title>vimeo</title>
<path class="path1" d="M30.518 9.25q-.179 4.214-5.929 11.625-5.946 7.696-10.036 7.696-2.536 0-4.286-4.696-.786-2.857-2.357-8.607-1.286-4.679-2.804-4.679-.321 0-2.268 1.357l-1.375-1.75q.429-.375 1.929-1.723T5.713 6.41q2.786-2.464 4.304-2.607 1.696-.161 2.732.991t1.446 3.634q.786 5.125 1.179 6.661.982 4.446 2.143 4.446.911 0 2.75-2.875 1.804-2.875 1.946-4.393.232-2.482-1.946-2.482-1.018 0-2.161.464 2.143-7.018 8.196-6.821 4.482.143 4.214 5.821z"></path>
</symbol>
<symbol id="social-whatsapp" viewBox="0 0 32 32">
<title>whatsapp</title>
<path class="path1" d="M 0.0742188 32 L 2.324219 23.78125 C 0.9375 21.378906 0.207031 18.652344 0.210938 15.855469 C 0.214844 7.113281 7.328125 0 16.066406 0 C 20.308594 0 24.289062 1.652344 27.285156 4.652344 C 30.277344 7.648438 31.925781 11.632812 31.925781 15.871094 C 31.921875 24.613281 24.808594 31.726562 16.066406 31.726562 C 13.414062 31.722656 10.796875 31.058594 8.484375 29.792969 Z M 8.871094 26.925781 C 11.105469 28.25 13.238281 29.046875 16.0625 29.046875 C 23.324219 29.046875 29.242188 23.132812 29.246094 15.867188 C 29.25 8.585938 23.359375 2.679688 16.070312 2.675781 C 8.800781 2.675781 2.890625 8.589844 2.886719 15.855469 C 2.886719 18.824219 3.753906 21.042969 5.214844 23.367188 L 3.882812 28.230469 Z M 24.054688 19.636719 C 23.957031 19.472656 23.691406 19.375 23.292969 19.175781 C 22.898438 18.976562 20.949219 18.019531 20.585938 17.886719 C 20.222656 17.753906 19.960938 17.6875 19.695312 18.085938 C 19.429688 18.480469 18.671875 19.375 18.441406 19.636719 C 18.210938 19.902344 17.976562 19.9375 17.582031 19.738281 C 17.183594 19.539062 15.90625 19.121094 14.394531 17.769531 C 13.21875 16.71875 12.421875 15.421875 12.191406 15.023438 C 11.960938 14.628906 12.167969 14.414062 12.363281 14.21875 C 12.542969 14.039062 12.761719 13.753906 12.957031 13.523438 C 13.160156 13.292969 13.226562 13.128906 13.359375 12.863281 C 13.492188 12.597656 13.425781 12.367188 13.324219 12.167969 C 13.226562 11.96875 12.433594 10.019531 12.105469 9.226562 C 11.78125 8.453125 11.453125 8.558594 11.210938 8.546875 L 10.453125 8.535156 C 10.1875 8.535156 9.757812 8.632812 9.394531 9.03125 C 9.035156 9.425781 8.007812 10.382812 8.007812 12.335938 C 8.007812 14.285156 9.429688 16.167969 9.625 16.433594 C 9.824219 16.699219 12.421875 20.699219 16.394531 22.414062 C 17.339844 22.824219 18.078125 23.066406 18.652344 23.25 C 19.601562 23.550781 20.464844 23.507812 21.148438 23.40625 C 21.910156 23.292969 23.492188 22.449219 23.824219 21.523438 C 24.15625 20.597656 24.15625 19.804688 24.054688 19.636719 Z M 24.054688 19.636719 "></path>
</symbol>
<symbol id="social-xing" viewBox="0 0 32 32">
<title>xing</title>
<path class="path1" d="M14.15 11.654c-.118.213-1.636 2.907-4.554 8.08-.32.543-.704.814-1.152.814H4.208c-.248 0-.432-.1-.55-.302-.118-.2-.118-.413 0-.637l4.484-7.938c.012 0 .012-.005 0-.018L5.29 6.708c-.141-.259-.148-.479-.018-.655.107-.177.295-.266.568-.266h4.236c.471 0 .863.266 1.17.798l2.904 5.068zM28.434.277c.13.189.13.407 0 .655l-9.357 16.552v.018L25.031 28.4c.13.236.136.455.018.655-.118.177-.307.266-.568.266h-4.236c-.496 0-.886-.266-1.17-.798L13.07 17.502c.213-.379 3.35-5.943 9.411-16.693.295-.532.673-.798 1.134-.798h4.271c.259 0 .441.089.548.266z"></path>
</symbol>
<symbol id="social-youtube" viewBox="0 0 32 32">
<title>youtube</title>
<path class="path1" d="M29.7 10.3s-.3-2-1.1-2.8c-1.1-1.1-2.3-1.1-2.8-1.2C21.9 6 16 6 16 6s-5.9 0-9.8.3c-.6.1-1.7.1-2.8 1.2-.8.9-1.1 2.8-1.1 2.8S2 12.6 2 14.9v2.2c0 2.3.3 4.6.3 4.6s.3 2 1.1 2.8c1.1 1.1 2.5 1.1 3.1 1.2 2.2.2 9.5.3 9.5.3s5.9 0 9.8-.3c.5-.1 1.7-.1 2.8-1.2.8-.9 1.1-2.8 1.1-2.8s.3-2.3.3-4.6v-2.2c0-2.3-.3-4.6-.3-4.6zm-16.6 9.4v-8l7.6 4-7.6 4z"></path>
</symbol>
</defs>
</svg>