<?xml version="1.0" encoding="UTF-8"?>
<svg xmlns="http://www.w3.org/2000/svg" xmlns:xlink="http://www.w3.org/1999/xlink" width="32px" height="32px" viewBox="0 0 32 32" version="1.1">
<path d="M 0.0585938 24.832031 C 0.15625 24.660156 0.308594 24.648438 0.523438 24.800781 C 5.371094 27.890625 10.648438 29.4375 16.347656 29.4375 C 20.148438 29.4375 23.902344 28.660156 27.605469 27.101562 C 27.703125 27.058594 27.84375 26.996094 28.027344 26.910156 C 28.214844 26.824219 28.34375 26.761719 28.421875 26.71875 C 28.710938 26.589844 28.941406 26.65625 29.105469 26.910156 C 29.269531 27.167969 29.21875 27.402344 28.945312 27.613281 C 28.597656 27.890625 28.148438 28.210938 27.605469 28.574219 C 25.9375 29.664062 24.078125 30.503906 22.023438 31.101562 C 19.964844 31.699219 17.957031 32 16 32 C 12.972656 32 10.113281 31.417969 7.417969 30.253906 C 4.722656 29.089844 2.308594 27.453125 0.175781 25.34375 C 0.0585938 25.234375 0 25.128906 0 25.023438 C 0 24.957031 0.0195312 24.894531 0.0585938 24.832031 Z M 8.816406 15.710938 C 8.816406 14.238281 9.144531 12.980469 9.804688 11.9375 C 10.464844 10.890625 11.363281 10.101562 12.507812 9.570312 C 13.554688 9.078125 14.847656 8.726562 16.378906 8.511719 C 16.902344 8.449219 17.753906 8.363281 18.9375 8.257812 L 18.9375 7.714844 C 18.9375 6.347656 18.800781 5.429688 18.53125 4.960938 C 18.125 4.320312 17.484375 4 16.609375 4 L 16.378906 4 C 15.738281 4.066406 15.183594 4.289062 14.71875 4.671875 C 14.253906 5.058594 13.953125 5.589844 13.816406 6.273438 C 13.742188 6.699219 13.546875 6.945312 13.238281 7.007812 L 9.890625 6.5625 C 9.5625 6.476562 9.394531 6.285156 9.394531 5.984375 C 9.394531 5.921875 9.40625 5.847656 9.425781 5.761719 C 9.753906 3.863281 10.566406 2.453125 11.855469 1.539062 C 13.144531 0.621094 14.652344 0.109375 16.378906 0 L 17.105469 0 C 19.316406 0 21.042969 0.632812 22.285156 1.890625 C 22.476562 2.105469 22.660156 2.332031 22.820312 2.578125 C 22.988281 2.824219 23.117188 3.042969 23.214844 3.234375 C 23.3125 3.425781 23.398438 3.703125 23.476562 4.066406 C 23.554688 4.429688 23.613281 4.679688 23.652344 4.816406 C 23.691406 4.957031 23.71875 5.253906 23.738281 5.714844 C 23.757812 6.171875 23.765625 6.445312 23.765625 6.527344 L 23.765625 14.273438 C 23.765625 14.828125 23.839844 15.332031 23.984375 15.792969 C 24.132812 16.25 24.273438 16.582031 24.40625 16.785156 C 24.542969 16.988281 24.765625 17.3125 25.078125 17.761719 C 25.191406 17.953125 25.25 18.121094 25.25 18.273438 C 25.25 18.441406 25.171875 18.589844 25.019531 18.71875 C 23.410156 20.253906 22.535156 21.085938 22.398438 21.214844 C 22.167969 21.40625 21.886719 21.429688 21.554688 21.28125 C 21.285156 21.023438 21.046875 20.777344 20.84375 20.542969 C 20.640625 20.308594 20.496094 20.136719 20.40625 20.03125 C 20.320312 19.925781 20.179688 19.71875 19.984375 19.40625 C 19.792969 19.097656 19.65625 18.890625 19.578125 18.785156 C 18.492188 20.085938 17.425781 20.894531 16.378906 21.214844 C 15.71875 21.429688 14.902344 21.535156 13.933594 21.535156 C 12.441406 21.535156 11.214844 21.027344 10.253906 20.015625 C 9.292969 19.003906 8.816406 17.566406 8.816406 15.710938 Z M 13.816406 15.070312 C 13.816406 15.902344 14.007812 16.570312 14.386719 17.070312 C 14.761719 17.574219 15.273438 17.824219 15.914062 17.824219 C 15.972656 17.824219 16.054688 17.8125 16.160156 17.792969 C 16.265625 17.769531 16.339844 17.761719 16.378906 17.761719 C 17.191406 17.523438 17.824219 16.949219 18.269531 16.03125 C 18.480469 15.625 18.640625 15.183594 18.75 14.703125 C 18.855469 14.222656 18.914062 13.835938 18.921875 13.535156 C 18.933594 13.238281 18.9375 12.746094 18.9375 12.066406 L 18.9375 11.265625 C 17.8125 11.265625 16.960938 11.351562 16.378906 11.519531 C 14.671875 12.054688 13.816406 13.238281 13.816406 15.070312 Z M 26.035156 25.375 C 26.074219 25.289062 26.132812 25.203125 26.210938 25.117188 C 26.695312 24.757812 27.160156 24.511719 27.605469 24.382812 C 28.34375 24.167969 29.0625 24.050781 29.761719 24.03125 C 29.953125 24.007812 30.136719 24.019531 30.3125 24.0625 C 31.183594 24.148438 31.710938 24.308594 31.882812 24.542969 C 31.960938 24.671875 32 24.863281 32 25.117188 L 32 25.34375 C 32 26.089844 31.816406 26.96875 31.449219 27.984375 C 31.078125 28.996094 30.566406 29.8125 29.90625 30.429688 C 29.808594 30.515625 29.722656 30.558594 29.644531 30.558594 C 29.605469 30.558594 29.566406 30.546875 29.527344 30.527344 C 29.410156 30.460938 29.382812 30.34375 29.441406 30.175781 C 30.15625 28.320312 30.515625 27.027344 30.515625 26.304688 C 30.515625 26.066406 30.476562 25.898438 30.398438 25.789062 C 30.207031 25.535156 29.664062 25.40625 28.769531 25.40625 C 28.441406 25.40625 28.054688 25.429688 27.605469 25.472656 C 27.121094 25.535156 26.675781 25.597656 26.269531 25.664062 C 26.152344 25.664062 26.074219 25.640625 26.035156 25.597656 C 25.996094 25.554688 25.988281 25.511719 26.007812 25.472656 C 26.007812 25.449219 26.015625 25.417969 26.035156 25.375 Z M 26.035156 25.375 "/>
</svg>