<?xml version="1.0" encoding="utf-8"?>
<!-- Generated by IcoMoon.io -->
<!DOCTYPE svg PUBLIC "-//W3C//DTD SVG 1.1//EN" "http://www.w3.org/Graphics/SVG/1.1/DTD/svg11.dtd">
<svg version="1.1" xmlns="http://www.w3.org/2000/svg" xmlns:xlink="http://www.w3.org/1999/xlink" width="32" height="32" viewBox="0 0 32 32">
<path fill="#000" d="M16 28c-0.271 0-0.5-0.093-0.688-0.282l-9.75-9.407c-0.104-0.084-0.248-0.218-0.43-0.407s-0.471-0.529-0.868-1.023-0.75-1.002-1.063-1.523-0.591-1.152-0.836-1.891-0.366-1.455-0.366-2.154c0-2.291 0.661-4.084 1.984-5.375s3.152-1.938 5.484-1.938c0.646 0 1.305 0.112 1.977 0.336s1.296 0.527 1.875 0.907 1.075 0.737 1.493 1.070c0.416 0.334 0.813 0.688 1.188 1.063 0.375-0.375 0.771-0.729 1.188-1.063s0.914-0.689 1.493-1.070 1.204-0.682 1.875-0.907 1.33-0.336 1.977-0.336c2.334 0 4.161 0.646 5.484 1.938s1.984 3.084 1.984 5.375c0 2.302-1.193 4.646-3.579 7.032l-9.734 9.375c-0.188 0.188-0.416 0.28-0.688 0.28z"></path>
</svg>
