<svg xmlns="http://www.w3.org/2000/svg" width="32" height="32" viewBox="0 0 32 32"><path d="M16 28c-.27 0-.5-.093-.688-.282l-9.75-9.407c-.104-.083-.248-.217-.43-.406s-.47-.53-.868-1.023-.75-1-1.063-1.522-.59-1.152-.835-1.89S2 12.01 2 11.312c0-2.29.66-4.084 1.983-5.375S7.135 4 9.467 4c.646 0 1.305.112 1.977.336s1.296.527 1.875.907 1.074.737 1.492 1.07c.416.334.813.688 1.188 1.063.375-.375.77-.73 1.188-1.063s.914-.69 1.493-1.07 1.205-.682 1.876-.907S21.886 4 22.533 4c2.334 0 4.16.646 5.484 1.938S30 9.022 30 11.313c0 2.302-1.192 4.646-3.578 7.032l-9.734 9.375c-.188.188-.416.28-.688.28z"/></svg>