<?xml version="1.0" encoding="utf-8"?>
<!-- Generated by IcoMoon.io -->
<!DOCTYPE svg PUBLIC "-//W3C//DTD SVG 1.1//EN" "http://www.w3.org/Graphics/SVG/1.1/DTD/svg11.dtd">
<svg version="1.1" xmlns="http://www.w3.org/2000/svg" xmlns:xlink="http://www.w3.org/1999/xlink" width="32" height="32" viewBox="0 0 32 32">
<path fill="#000" d="M28.002 24.457v-11.991c-0.334 0.375-0.693 0.718-1.077 1.030-2.789 2.145-5.007 3.904-6.652 5.277-0.53 0.448-0.962 0.796-1.296 1.046s-0.784 0.502-1.35 0.757c-0.568 0.255-1.1 0.382-1.6 0.382h-0.030c-0.5 0-1.034-0.127-1.6-0.382-0.568-0.255-1.018-0.507-1.35-0.757-0.334-0.25-0.764-0.598-1.296-1.046-1.645-1.373-3.862-3.134-6.652-5.277-0.386-0.313-0.745-0.655-1.077-1.030v11.991c0 0.136 0.050 0.252 0.148 0.352 0.098 0.098 0.216 0.148 0.352 0.148h22.984c0.136 0 0.252-0.050 0.352-0.148 0.095-0.098 0.145-0.216 0.145-0.352zM28.002 8.048v-0.382l-0.007-0.204-0.046-0.195-0.086-0.141-0.141-0.118-0.218-0.039h-22.986c-0.136 0-0.252 0.050-0.352 0.148-0.098 0.098-0.148 0.216-0.148 0.352 0 1.748 0.764 3.227 2.295 4.434 2.009 1.582 4.096 3.232 6.261 4.95 0.063 0.052 0.245 0.205 0.546 0.461s0.541 0.45 0.718 0.586c0.177 0.136 0.409 0.3 0.695 0.491 0.286 0.193 0.548 0.336 0.789 0.429 0.239 0.093 0.463 0.141 0.671 0.141h0.030c0.209 0 0.432-0.046 0.671-0.141 0.239-0.093 0.502-0.238 0.789-0.429 0.286-0.193 0.518-0.357 0.695-0.491 0.177-0.136 0.416-0.33 0.718-0.586s0.484-0.409 0.546-0.461c2.164-1.718 4.252-3.368 6.261-4.95 0.563-0.448 1.086-1.048 1.57-1.804 0.486-0.754 0.729-1.438 0.729-2.052zM30 7.47v16.988c0 0.688-0.245 1.275-0.734 1.764s-1.077 0.734-1.764 0.734h-22.984c-0.688 0-1.275-0.245-1.764-0.734s-0.734-1.077-0.734-1.764v-16.988c0-0.688 0.245-1.275 0.734-1.764s1.077-0.734 1.764-0.734h22.984c0.688 0 1.275 0.245 1.764 0.734s0.734 1.077 0.734 1.764z"></path>
</svg>
