<svg xmlns="http://www.w3.org/2000/svg" width="32" height="32" viewBox="0 0 32 32"><path d="M28.002 24.457V12.466c-.334.375-.693.718-1.077 1.03-2.789 2.145-5.007 3.904-6.652 5.277-.53.448-.962.796-1.296 1.046s-.784.502-1.35.757c-.568.255-1.1.382-1.6.382h-.03c-.5 0-1.034-.127-1.6-.382-.568-.255-1.018-.507-1.35-.757-.334-.25-.764-.598-1.296-1.046-1.645-1.373-3.862-3.134-6.652-5.277-.386-.313-.745-.655-1.077-1.03v11.991c0 .136.05.252.148.352.098.098.216.148.352.148h22.984c.136 0 .252-.05.352-.148.095-.098.145-.216.145-.352zm0-16.409v-.382l-.007-.204-.046-.195-.086-.141-.141-.118-.218-.039H4.518c-.136 0-.252.05-.352.148-.098.098-.148.216-.148.352 0 1.748.764 3.227 2.295 4.434 2.009 1.582 4.096 3.232 6.261 4.95.063.052.245.205.546.461s.541.45.718.586c.177.136.409.3.695.491.286.193.548.336.789.429.239.093.463.141.671.141h.03c.209 0 .432-.046.671-.141.239-.093.502-.238.789-.429.286-.193.518-.357.695-.491.177-.136.416-.33.718-.586s.484-.409.546-.461c2.164-1.718 4.252-3.368 6.261-4.95.563-.448 1.086-1.048 1.57-1.804.486-.754.729-1.438.729-2.052zM30 7.47v16.988c0 .688-.245 1.275-.734 1.764s-1.077.734-1.764.734H4.518c-.688 0-1.275-.245-1.764-.734s-.734-1.077-.734-1.764V7.47c0-.688.245-1.275.734-1.764s1.077-.734 1.764-.734h22.984c.688 0 1.275.245 1.764.734S30 6.783 30 7.47z"/></svg>