<?xml version="1.0" encoding="UTF-8" standalone="no" ?>
<svg xmlns="http://www.w3.org/2000/svg" xml:space="preserve" width="700" height="700">
  <rect width="100%" height="100%" fill="rgba(244, 88, 0, 1)"/>
  <path fill="#fff" d="M263.00874 138.0205v197.18256s69.47994 0 106.665-2.82252c29.24262-5.11992 34.6251-7.94244 40.00758-37.18506l10.76496-42.8301h31.80258l-5.38248 93.60264 2.82252 95.90004h-32.06514l-7.94244-37.44762c-7.94244-26.64984-18.7074-32.06514-40.00758-34.6251-26.64984-2.82252-106.665-2.82252-106.665-2.82252V532.3528c0 31.80258 16.14744 45.39006 53.3325 45.39006h112.04748c34.6251 0 69.21738-2.82252 90.78012-53.3325l28.98006-64.09746h26.9124c-2.82252 13.32492-16.14744 130.75488-18.7074 157.17498 0 0-101.28252-2.55996-143.85006-2.55996H220.4412l-114.60744 2.55996v-28.98006l37.18506-8.205c26.9124-5.38248 34.85484-13.32492 34.85484-34.6251 0 0 2.82252-72.0399 2.82252-192.06264 0-119.72736-2.82252-191.80008-2.82252-191.80008 0-23.86014-7.94244-29.24262-34.85484-34.6251l-37.18506-7.8768V90.07048l112.04748 2.2974h213.33c42.56754 0 114.34488-7.67988 114.34488-7.67988s-2.55996 45.1275-5.38248 151.7925h-29.24262l-10.76496-37.44762c-10.5024-47.95002-26.4201-71.81016-55.89246-71.81016H276.59622c-13.58748.03282-13.58748 2.59278-13.58748 10.79778zm431.77992 21.03762h32.06514V271.1056l109.48752-5.38248-5.38248 50.77254-106.665-8.205v197.44512c0 55.89246 18.7074 77.42238 50.77254 77.42238 28.98006 0 50.50998-16.14744 58.45242-29.47236l15.88488 18.7074c-15.88488 37.18506-61.01238 55.89246-103.84248 55.89246-53.06994 0-96.1626-31.80258-96.1626-93.07752V311.08036h-63.60516v-26.64984c53.36532-5.38248 93.11034-37.44762 108.99522-125.3724zM924.2661 502.88044l21.26736 50.77254c7.94244 21.26736 26.64984 42.8301 69.21738 42.8301 45.39006 0 64.09746-24.08988 64.09746-53.3325 0-90.78012-178.7049-64.09746-178.7049-186.68016 0-69.21738 55.89246-101.54508 127.93236-101.54508 32.06514 0 80.01516 5.38248 104.10504 16.14744-5.38248 26.64984-8.205 61.27494-8.205 87.9576l-26.4201 2.55996-18.7074-53.3325c-5.38248-13.06236-26.9124-23.86014-53.3325-23.86014-32.06514 0-64.09746 13.32492-64.09746 47.95002 0 82.57512 184.08738 64.09746 184.08738 186.68016 0 69.47994-61.27494 106.665-136.13736 106.665-55.89246 0-112.04748-21.52992-112.04748-21.52992 5.38248-31.80258 2.82252-66.39486 0-101.28252h26.94522zm207.94752 255.89754c7.94244-29.24262 13.32492-66.39486 18.7074-101.28252l29.24262-2.55996 10.76496 55.89246c2.55996 13.32492 10.5024 24.08988 31.80258 24.08988 34.6251 0 80.01516-21.26736 122.81244-95.90004-18.96996-45.39006-74.86242-191.80008-125.63496-303.84756-13.32492-29.47236-15.88488-32.06514-34.36254-37.44762l-13.58748-5.11992v-26.9124l80.2449 2.82252 98.46-5.38248V289.813l-24.08988 5.38248c-18.7074 2.55996-26.4201 13.06236-26.4201 23.86014 0 2.82252 0 5.38248 2.55996 10.76496 5.11992 16.14744 47.95002 135.90762 80.01516 215.88996 26.4201-55.89246 77.19264-181.26486 85.13508-202.56504 2.82252-10.76496 5.38248-13.32492 5.38248-21.26736 0-13.58748-7.94244-21.52992-26.4201-26.64984l-18.96996-5.4153v-26.64984l74.86242 2.55996 69.21738-2.55996V289.813l-13.32492 10.5024c-26.64984 10.76496-29.47236 13.32492-40.00758 34.85484l-117.1674 274.34238c-69.47994 157.43754-141.51984 170.76246-192.06264 170.76246-32.03232.03282-56.1222-8.17218-77.15982-21.4971z"/>
  <path fill="#f45800" stroke="#f45800" stroke-width="8" d="M-50-50V50H50V-50z" transform="matrix(10.96 0 0 8.48 1133.03 348.2)" vector-effect="non-scaling-stroke"/>
</svg>