<?xml version="1.0" encoding="utf-8"?>
<!-- Generated by IcoMoon.io -->
<!DOCTYPE svg PUBLIC "-//W3C//DTD SVG 1.1//EN" "http://www.w3.org/Graphics/SVG/1.1/DTD/svg11.dtd">
<svg version="1.1" xmlns="http://www.w3.org/2000/svg" xmlns:xlink="http://www.w3.org/1999/xlink" width="32" height="32" viewBox="0 0 32 32">
<path fill="#000" d="M14.032 16.007c0-1.664-0.586-3.080-1.757-4.25s-2.586-1.757-4.25-1.757-3.080 0.586-4.25 1.757-1.757 2.588-1.757 4.25 0.586 3.080 1.757 4.25c1.17 1.17 2.588 1.757 4.25 1.757s3.080-0.586 4.25-1.757c1.171-1.17 1.757-2.586 1.757-4.25zM30.014 16.007c0-1.664-0.586-3.080-1.757-4.25s-2.587-1.757-4.25-1.757-3.080 0.586-4.25 1.757c-1.17 1.17-1.757 2.588-1.757 4.25s0.586 3.080 1.757 4.25c1.17 1.17 2.587 1.757 4.25 1.757s3.080-0.586 4.25-1.757c1.171-1.17 1.757-2.586 1.757-4.25z"></path>
</svg>
