<svg xmlns="http://www.w3.org/2000/svg" width="32" height="32" viewBox="0 0 32 32"><path d="M14.032 16.007c0-1.664-.586-3.08-1.757-4.25S9.689 10 8.025 10s-3.08.586-4.25 1.757-1.757 2.588-1.757 4.25.586 3.08 1.757 4.25c1.17 1.17 2.588 1.757 4.25 1.757s3.08-.586 4.25-1.757c1.171-1.17 1.757-2.586 1.757-4.25zm15.982 0c0-1.664-.586-3.08-1.757-4.25S25.67 10 24.007 10s-3.08.586-4.25 1.757c-1.17 1.17-1.757 2.588-1.757 4.25s.586 3.08 1.757 4.25c1.17 1.17 2.587 1.757 4.25 1.757s3.08-.586 4.25-1.757c1.171-1.17 1.757-2.586 1.757-4.25z"/></svg>