<svg xmlns="http://www.w3.org/2000/svg" xmlns:xlink="http://www.w3.org/1999/xlink" width="32px" height="32px" viewBox="0 0 32 32" version="1.1">
<path d="M 14.535156 2.800781 C 8.398438 3.464844 3.464844 8.398438 2.800781 14.398438 C 2.132812 20.667969 5.734375 26.265625 11.199219 28.398438 C 11.601562 28.535156 12 28.265625 12 27.734375 L 12 25.601562 C 12 25.601562 11.464844 25.734375 10.800781 25.734375 C 8.933594 25.734375 8.132812 24.132812 8 23.199219 C 7.867188 22.667969 7.601562 22.265625 7.199219 21.867188 C 6.800781 21.734375 6.667969 21.734375 6.667969 21.601562 C 6.667969 21.332031 7.066406 21.332031 7.199219 21.332031 C 8 21.332031 8.667969 22.265625 8.933594 22.667969 C 9.601562 23.734375 10.398438 24 10.800781 24 C 11.332031 24 11.734375 23.867188 12 23.734375 C 12.132812 22.800781 12.535156 21.867188 13.332031 21.332031 C 10.265625 20.667969 8 18.933594 8 16 C 8 14.535156 8.667969 13.066406 9.601562 12 C 9.464844 11.734375 9.332031 11.066406 9.332031 10.132812 C 9.332031 9.601562 9.332031 8.800781 9.734375 8 C 9.734375 8 11.601562 8 13.464844 9.734375 C 14.132812 9.464844 15.066406 9.332031 16 9.332031 C 16.933594 9.332031 17.867188 9.464844 18.667969 9.734375 C 20.398438 8 22.398438 8 22.398438 8 C 22.667969 8.800781 22.667969 9.601562 22.667969 10.132812 C 22.667969 11.199219 22.535156 11.734375 22.398438 12 C 23.332031 13.066406 24 14.398438 24 16 C 24 18.933594 21.734375 20.667969 18.667969 21.332031 C 19.464844 22 20 23.199219 20 24.398438 L 20 27.867188 C 20 28.265625 20.398438 28.667969 20.933594 28.535156 C 25.867188 26.535156 29.332031 21.734375 29.332031 16.132812 C 29.332031 8.132812 22.535156 1.867188 14.535156 2.800781 Z M 14.535156 2.800781 "/>
</svg>

