<?xml version="1.0" encoding="utf-8"?>
<!-- Generated by IcoMoon.io -->
<!DOCTYPE svg PUBLIC "-//W3C//DTD SVG 1.1//EN" "http://www.w3.org/Graphics/SVG/1.1/DTD/svg11.dtd">
<svg version="1.1" xmlns="http://www.w3.org/2000/svg" xmlns:xlink="http://www.w3.org/1999/xlink" width="32" height="32" viewBox="0 0 32 32">
<path fill="#000" d="M12.571 20.596c0 0.477-0.075 0.964-0.223 1.464s-0.405 0.952-0.768 1.357-0.795 0.607-1.295 0.607-0.932-0.202-1.295-0.607c-0.363-0.405-0.62-0.857-0.768-1.357s-0.223-0.988-0.223-1.464 0.075-0.964 0.223-1.464 0.405-0.952 0.768-1.357c0.363-0.405 0.795-0.607 1.295-0.607s0.932 0.202 1.295 0.607 0.62 0.857 0.768 1.357 0.223 0.988 0.223 1.464zM24 20.596c0 0.477-0.075 0.964-0.223 1.464s-0.405 0.952-0.768 1.357-0.795 0.607-1.295 0.607-0.932-0.202-1.295-0.607-0.62-0.857-0.768-1.357-0.223-0.988-0.223-1.464 0.075-0.964 0.223-1.464 0.405-0.952 0.768-1.357 0.795-0.607 1.295-0.607 0.932 0.202 1.295 0.607 0.62 0.857 0.768 1.357 0.223 0.988 0.223 1.464zM26.857 20.596c0-1.429-0.411-2.643-1.232-3.643s-1.934-1.5-3.339-1.5c-0.488 0-1.648 0.125-3.482 0.375-0.845 0.13-1.78 0.196-2.804 0.196s-1.959-0.066-2.804-0.196c-1.809-0.25-2.97-0.375-3.482-0.375-1.405 0-2.518 0.5-3.339 1.5s-1.232 2.214-1.232 3.643c0 1.048 0.191 1.961 0.571 2.741s0.862 1.393 1.446 1.839 1.309 0.804 2.179 1.071 1.702 0.443 2.5 0.527 1.684 0.125 2.661 0.125h3c0.977 0 1.863-0.041 2.661-0.125s1.63-0.259 2.5-0.527 1.595-0.625 2.179-1.071 1.066-1.059 1.446-1.839 0.571-1.695 0.571-2.741zM30.857 17.454c0 2.464-0.363 4.434-1.089 5.911-0.452 0.916-1.080 1.709-1.884 2.375s-1.643 1.179-2.518 1.536-1.887 0.639-3.036 0.848-2.17 0.339-3.063 0.393-1.887 0.080-2.982 0.080c-0.929 0-1.773-0.018-2.536-0.054s-1.639-0.111-2.634-0.223-1.902-0.291-2.723-0.536-1.638-0.55-2.446-0.92-1.53-0.852-2.161-1.446-1.143-1.28-1.536-2.054c-0.738-1.464-1.107-3.434-1.107-5.911 0-2.821 0.809-5.179 2.429-7.071-0.321-0.977-0.482-1.988-0.482-3.036 0-1.38 0.304-2.679 0.911-3.893 1.286 0 2.416 0.236 3.393 0.705s2.102 1.205 3.375 2.205c1.75-0.416 3.589-0.625 5.518-0.625 1.762 0 3.429 0.191 5 0.571 1.25-0.977 2.363-1.696 3.339-2.161s2.102-0.696 3.375-0.696c0.607 1.214 0.911 2.513 0.911 3.893 0 1.036-0.161 2.036-0.482 3 1.62 1.904 2.429 4.273 2.429 7.107z"></path>
</svg>
