<?xml version="1.0" encoding="UTF-8"?>
<svg xmlns="http://www.w3.org/2000/svg" xmlns:xlink="http://www.w3.org/1999/xlink" width="32px" height="32px" viewBox="0 0 32 32" version="1.1">
<path d="M 26.035156 21.300781 L 26.035156 0.652344 L 23.289062 0.652344 L 23.289062 4.527344 L 23.203125 4.527344 C 22.921875 3.921875 22.5625 3.339844 22.078125 2.785156 C 21.601562 2.234375 21.058594 1.75 20.4375 1.328125 C 19.816406 0.90625 19.15625 0.578125 18.410156 0.34375 C 17.675781 0.121094 16.890625 0 16.050781 0 C 14.4375 0 12.984375 0.300781 11.722656 0.894531 C 10.460938 1.488281 9.398438 2.300781 8.542969 3.332031 C 7.6875 4.363281 7.03125 5.566406 6.582031 6.949219 C 6.132812 8.332031 5.90625 9.785156 5.90625 11.324219 C 5.90625 12.925781 6.097656 14.425781 6.476562 15.835938 C 6.855469 17.242188 7.457031 18.46875 8.296875 19.515625 C 9.140625 20.558594 10.179688 21.378906 11.464844 21.960938 C 12.746094 22.542969 14.289062 22.84375 16.09375 22.84375 C 17.757812 22.84375 19.199219 22.421875 20.441406 21.582031 C 21.683594 20.738281 22.625 19.617188 23.269531 18.214844 L 23.347656 18.214844 L 23.347656 21.261719 C 23.347656 23.984375 22.789062 26.070312 21.664062 27.535156 C 20.542969 28.976562 18.699219 29.71875 16.136719 29.71875 C 15.375 29.71875 14.632812 29.636719 13.910156 29.476562 C 13.1875 29.316406 12.53125 29.054688 11.929688 28.714844 C 11.34375 28.355469 10.824219 27.914062 10.402344 27.332031 C 9.984375 26.753906 9.703125 26.050781 9.5625 25.207031 L 6.753906 25.207031 C 6.839844 26.390625 7.171875 27.414062 7.734375 28.273438 C 8.300781 29.136719 9.015625 29.835938 9.871094 30.398438 C 10.726562 30.941406 11.691406 31.339844 12.765625 31.601562 C 13.847656 31.859375 14.953125 32 16.09375 32 C 17.9375 32 19.480469 31.742188 20.738281 31.261719 C 22.003906 30.761719 23.023438 30.058594 23.808594 29.117188 C 24.609375 28.171875 25.167969 27.050781 25.53125 25.710938 C 25.890625 24.367188 26.09375 22.863281 26.09375 21.21875 Z M 16.054688 20.558594 C 14.78125 20.558594 13.675781 20.308594 12.75 19.796875 C 11.820312 19.292969 11.046875 18.621094 10.441406 17.792969 C 9.816406 16.964844 9.378906 16.019531 9.078125 14.941406 C 8.777344 13.867188 8.632812 12.765625 8.632812 11.628906 C 8.632812 10.46875 8.773438 9.332031 9.035156 8.214844 C 9.316406 7.09375 9.757812 6.097656 10.359375 5.226562 C 10.960938 4.355469 11.742188 3.652344 12.664062 3.113281 C 13.585938 2.578125 14.707031 2.308594 16.007812 2.308594 C 17.3125 2.308594 18.414062 2.585938 19.335938 3.136719 C 20.238281 3.6875 21 4.414062 21.578125 5.316406 C 22.160156 6.21875 22.582031 7.21875 22.84375 8.320312 C 23.101562 9.421875 23.222656 10.53125 23.222656 11.628906 C 23.222656 12.765625 23.0625 13.867188 22.761719 14.941406 C 22.460938 16.019531 22 16.964844 21.378906 17.792969 C 20.757812 18.621094 20.015625 19.292969 19.113281 19.796875 C 18.214844 20.308594 17.171875 20.558594 15.96875 20.558594 Z M 16.054688 20.558594 "/>
</svg>