<?xml version="1.0" encoding="utf-8"?>
<!-- Generated by IcoMoon.io -->
<!DOCTYPE svg PUBLIC "-//W3C//DTD SVG 1.1//EN" "http://www.w3.org/Graphics/SVG/1.1/DTD/svg11.dtd">
<svg version="1.1" xmlns="http://www.w3.org/2000/svg" xmlns:xlink="http://www.w3.org/1999/xlink" width="32" height="32" viewBox="0 0 32 32">
<path fill="#000" d="M16 14.036h12.946q0.214 1.196 0.214 2.286 0 3.875-1.625 6.92t-4.634 4.759-6.902 1.714q-2.804 0-5.339-1.080t-4.375-2.92-2.92-4.375-1.080-5.339 1.080-5.339 2.92-4.375 4.375-2.92 5.339-1.080q5.357 0 9.196 3.589l-3.732 3.589q-2.196-2.125-5.464-2.125-2.304 0-4.259 1.161t-3.098 3.152-1.143 4.348 1.143 4.348 3.098 3.152 4.259 1.161q1.554 0 2.857-0.429t2.143-1.071 1.464-1.464 0.92-1.554 0.402-1.393h-7.786v-4.714z"></path>
</svg>
