<svg xmlns="http://www.w3.org/2000/svg" viewBox="0 0 32 32"><path d="M1 15.6c-.3 4 2.3 7.9 6.1 9.4 3.7 1.4 8.5.5 10.8-2.9 1.6-2.1 1.9-4.8 1.7-7.4h-9.1v3.2c1.8.1 3.6 0 5.4.1-.8 4-6.3 5.3-9.2 2.7-3-2.3-2.8-7.4.3-9.5 2.2-1.7 5.2-1.3 7.4.2.9-.8 1.6-1.6 2.4-2.5-1.8-1.4-4-2.5-6.4-2.4-4.8-.1-9.3 4.2-9.4 9.1zM25.6 12v2.7h-2.7v2.7h2.7v2.7h2.7v-2.7H31v-2.7h-2.7V12h-2.7z"/><path d="M1 15.6c.1-4.9 4.6-9.2 9.5-9 2.4-.1 4.6.9 6.4 2.4-.8.9-1.6 1.7-2.4 2.5-2.2-1.5-5.2-1.9-7.4-.2-3.1 2.1-3.2 7.2-.3 9.5 2.9 2.6 8.4 1.3 9.2-2.7-1.8 0-3.6 0-5.4-.1v-3.2h9.1c.2 2.5-.2 5.3-1.7 7.4-2.4 3.3-7.1 4.3-10.8 2.9C3.3 23.6.7 19.6 1 15.6zM25.6 12h2.7v2.7H31v2.7h-2.7v2.7h-2.7v-2.7h-2.7v-2.7h2.7c-.1-.9-.1-1.8 0-2.7z"/></svg>