<?xml version="1.0" encoding="utf-8"?>
<!-- Generated by IcoMoon.io -->
<!DOCTYPE svg PUBLIC "-//W3C//DTD SVG 1.1//EN" "http://www.w3.org/Graphics/SVG/1.1/DTD/svg11.dtd">
<svg version="1.1" xmlns="http://www.w3.org/2000/svg" xmlns:xlink="http://www.w3.org/1999/xlink" width="32" height="32" viewBox="0 0 32 32">
<path fill="#000" d="M29.448 15.936c0 2.661-0.029 4.502-0.087 5.525-0.116 2.416-0.836 4.288-2.161 5.613s-3.195 2.045-5.613 2.161c-1.023 0.057-2.864 0.087-5.525 0.087s-4.502-0.029-5.525-0.087c-2.416-0.116-4.287-0.836-5.612-2.161s-2.045-3.195-2.161-5.613c-0.059-1.021-0.087-2.864-0.087-5.525s0.029-4.502 0.087-5.525c0.116-2.416 0.836-4.287 2.161-5.612s3.195-2.045 5.612-2.161c1.021-0.057 2.864-0.087 5.525-0.087s4.502 0.029 5.525 0.087c2.416 0.116 4.288 0.836 5.613 2.161s2.045 3.195 2.161 5.612c0.059 1.023 0.087 2.864 0.087 5.525zM17.396 4.948c-0.807 0.005-1.252 0.009-1.334 0.009s-0.525-0.004-1.334-0.009c-0.807-0.005-1.42-0.005-1.839 0-0.418 0.005-0.979 0.023-1.682 0.052s-1.302 0.088-1.795 0.175c-0.495 0.088-0.909 0.195-1.246 0.323-0.58 0.232-1.093 0.57-1.534 1.011s-0.779 0.954-1.011 1.534c-0.129 0.338-0.236 0.752-0.323 1.246s-0.145 1.093-0.175 1.795c-0.029 0.704-0.046 1.264-0.052 1.682s-0.005 1.032 0 1.839c0.005 0.807 0.009 1.252 0.009 1.334s-0.004 0.525-0.009 1.334c-0.005 0.807-0.005 1.42 0 1.839 0.005 0.418 0.023 0.979 0.052 1.682s0.088 1.302 0.175 1.795c0.088 0.495 0.195 0.909 0.323 1.246 0.232 0.58 0.57 1.093 1.011 1.534s0.952 0.779 1.534 1.011c0.338 0.129 0.752 0.236 1.246 0.323 0.493 0.087 1.093 0.145 1.795 0.175 0.704 0.029 1.264 0.046 1.682 0.052s1.030 0.005 1.839 0c0.807-0.005 1.252-0.009 1.334-0.009 0.080 0 0.525 0.004 1.334 0.009 0.807 0.005 1.42 0.005 1.839 0 0.418-0.005 0.979-0.023 1.682-0.052s1.302-0.087 1.795-0.175c0.493-0.087 0.909-0.195 1.246-0.323 0.58-0.232 1.093-0.57 1.534-1.011s0.779-0.952 1.011-1.534c0.129-0.337 0.236-0.752 0.323-1.246 0.087-0.493 0.145-1.093 0.175-1.795 0.029-0.704 0.046-1.264 0.052-1.682s0.005-1.030 0-1.839c-0.005-0.807-0.009-1.252-0.009-1.334 0-0.080 0.004-0.525 0.009-1.334 0.005-0.807 0.005-1.42 0-1.839-0.005-0.418-0.023-0.979-0.052-1.682s-0.087-1.302-0.175-1.795c-0.087-0.493-0.195-0.909-0.323-1.246-0.232-0.58-0.57-1.093-1.011-1.534s-0.954-0.779-1.534-1.011c-0.337-0.129-0.752-0.236-1.246-0.323s-1.093-0.145-1.795-0.175c-0.704-0.029-1.264-0.046-1.682-0.052-0.418-0.007-1.030-0.007-1.839 0zM20.927 11.073c1.336 1.336 2.004 2.957 2.004 4.862s-0.668 3.527-2.004 4.863c-1.336 1.336-2.957 2.004-4.863 2.004s-3.527-0.668-4.863-2.004c-1.338-1.336-2.005-2.957-2.005-4.863s0.668-3.527 2.004-4.863c1.336-1.336 2.957-2.004 4.863-2.004 1.907 0 3.527 0.668 4.864 2.004zM19.218 19.091c0.871-0.871 1.307-1.923 1.307-3.155s-0.436-2.284-1.307-3.155c-0.871-0.871-1.923-1.307-3.155-1.307s-2.284 0.436-3.155 1.307c-0.871 0.871-1.307 1.923-1.307 3.155s0.436 2.284 1.307 3.155c0.871 0.871 1.923 1.307 3.155 1.307s2.284-0.436 3.155-1.307zM24.343 7.657c0.314 0.314 0.471 0.691 0.471 1.132s-0.157 0.82-0.471 1.132c-0.314 0.314-0.691 0.471-1.132 0.471s-0.82-0.157-1.132-0.471c-0.314-0.314-0.471-0.691-0.471-1.132s0.157-0.82 0.471-1.132c0.314-0.314 0.691-0.471 1.132-0.471 0.441 0.002 0.818 0.159 1.132 0.471z"></path>
</svg>
