<svg xmlns="http://www.w3.org/2000/svg" width="32" height="32" viewBox="0 0 32 32"><path d="M11.329 8.579v18.329c0 .261-.064.482-.195.664s-.32.273-.57.273c-.177 0-.348-.041-.516-.125l-7.266-3.641c-.218-.104-.404-.279-.555-.523S2 23.068 2 22.829V5.016c0-.209.052-.386.157-.532s.255-.218.454-.218c.146 0 .375.079.688.234l7.984 4c.03.032.046.057.046.079zm1 1.578l8.343 13.532-8.343-4.157v-9.375zM30 10.438v16.468c0 .261-.073.471-.218.632s-.343.243-.593.243-.495-.068-.734-.204l-6.891-3.438L30 10.437zm-.046-1.875c0 .032-1.336 2.216-4.007 6.555s-4.238 6.877-4.695 7.618l-6.095-9.907 5.063-8.234c.177-.291.448-.438.813-.438.146 0 .282.032.407.093l8.454 4.218c.039.021.061.054.061.095z"/></svg>