<?xml version="1.0" encoding="utf-8"?>
<!-- Generated by IcoMoon.io -->
<!DOCTYPE svg PUBLIC "-//W3C//DTD SVG 1.1//EN" "http://www.w3.org/Graphics/SVG/1.1/DTD/svg11.dtd">
<svg version="1.1" xmlns="http://www.w3.org/2000/svg" xmlns:xlink="http://www.w3.org/1999/xlink" width="32" height="32" viewBox="0 0 32 32">
<path fill="#000" d="M11.329 8.579v18.329c0 0.261-0.064 0.482-0.195 0.664s-0.32 0.273-0.57 0.273c-0.177 0-0.348-0.041-0.516-0.125l-7.266-3.641c-0.218-0.104-0.404-0.279-0.555-0.523s-0.227-0.488-0.227-0.727v-17.813c0-0.209 0.052-0.386 0.157-0.532s0.255-0.218 0.454-0.218c0.146 0 0.375 0.079 0.688 0.234l7.984 4c0.030 0.032 0.046 0.057 0.046 0.079zM12.329 10.157l8.343 13.532-8.343-4.157v-9.375zM30 10.438v16.468c0 0.261-0.073 0.471-0.218 0.632s-0.343 0.243-0.593 0.243-0.495-0.068-0.734-0.204l-6.891-3.438 8.436-13.702zM29.954 8.563c0 0.032-1.336 2.216-4.007 6.555s-4.238 6.877-4.695 7.618l-6.095-9.907 5.063-8.234c0.177-0.291 0.448-0.438 0.813-0.438 0.146 0 0.282 0.032 0.407 0.093l8.454 4.218c0.039 0.021 0.061 0.054 0.061 0.095z"></path>
</svg>
