<?xml version="1.0" encoding="UTF-8"?>
<svg xmlns="http://www.w3.org/2000/svg" xmlns:xlink="http://www.w3.org/1999/xlink" width="32px" height="32px" viewBox="0 0 32 32" version="1.1">
<path d="M 28.636719 26.269531 C 29.808594 26.472656 30.964844 26.667969 31.152344 28.125 C 31.640625 32 25.5625 30.558594 24.171875 29.71875 C 21.992188 28.398438 20.667969 25.378906 21.234375 22.402344 C 21.453125 21.25 22.632812 18.269531 23.742188 15.460938 C 24.785156 12.828125 25.761719 10.355469 25.835938 9.679688 C 25.988281 8.25 25.375 8.128906 24.988281 8.109375 C 24.492188 8.078125 24.101562 8.375 23.617188 9.28125 C 23.308594 9.851562 20.839844 15.90625 19.1875 19.953125 C 18.441406 21.785156 17.863281 23.207031 17.726562 23.519531 C 16.949219 25.332031 15.96875 25.769531 14.988281 25.707031 C 13.554688 25.613281 12.898438 24.664062 13.105469 22.957031 C 13.160156 22.496094 13.859375 20.382812 14.617188 18.097656 C 15.507812 15.394531 16.480469 12.449219 16.570312 11.699219 C 16.667969 10.84375 16.53125 9.9375 15.847656 9.503906 C 15.160156 9.0625 14.351562 9.730469 14.105469 10.238281 C 13.945312 10.570312 12.84375 14.039062 11.679688 17.695312 C 10.394531 21.726562 9.035156 25.988281 8.785156 26.550781 C 7.957031 28.417969 7.082031 29.007812 5.769531 29.085938 C 2.664062 29.269531 0.359375 26.109375 1.375 22.238281 C 1.460938 21.917969 1.628906 21.207031 1.863281 20.238281 C 2.890625 15.996094 5.101562 6.816406 6.335938 4.105469 C 7.351562 1.867188 10.183594 0.171875 12.144531 1.21875 C 12.789062 1.566406 13.589844 2.039062 14.195312 2.398438 C 14.546875 2.605469 14.832031 2.773438 14.984375 2.859375 C 15.824219 3.320312 16.714844 2.285156 17.195312 1.726562 C 17.265625 1.648438 17.324219 1.582031 17.375 1.527344 C 17.421875 1.472656 17.46875 1.421875 17.515625 1.371094 C 17.871094 0.984375 18.226562 0.601562 18.664062 0.371094 C 19.15625 0.109375 19.929688 0 20.527344 0.109375 C 21.128906 0.21875 21.488281 0.5 21.710938 0.71875 C 22.078125 1.085938 22.332031 1.382812 22.648438 1.757812 L 22.839844 1.988281 C 23.417969 2.664062 23.84375 2.34375 24.15625 2.109375 L 24.234375 2.054688 L 24.25 2.042969 C 24.789062 1.652344 25.21875 1.34375 26.816406 1.378906 C 28.472656 1.414062 30.378906 2.148438 30.777344 5.644531 C 30.992188 7.53125 29.785156 10.859375 28.53125 14.316406 C 27.203125 17.976562 25.820312 21.785156 26.023438 24.171875 C 26.167969 25.847656 27.40625 26.0625 28.636719 26.269531 Z M 28.636719 26.269531 "/>
</svg>