<?xml version="1.0" encoding="utf-8"?>
<!-- Generated by IcoMoon.io -->
<!DOCTYPE svg PUBLIC "-//W3C//DTD SVG 1.1//EN" "http://www.w3.org/Graphics/SVG/1.1/DTD/svg11.dtd">
<svg version="1.1" xmlns="http://www.w3.org/2000/svg" xmlns:xlink="http://www.w3.org/1999/xlink" width="32" height="32" viewBox="0 0 32 32">
<path fill="#000" d="M16.032 0.002c-6.396 0-11.582 5.184-11.582 11.58 0 8.611 9.261 18.073 11.58 18.073s11.58-9.462 11.58-18.073c0.002-6.396-5.184-11.58-11.579-11.58zM16.032 18.646c-3.88 0-7.027-3.146-7.027-7.027 0-1.537 0.496-2.961 1.334-4.118 0.089 1.486 1.321 2.664 2.829 2.664 1.568 0 2.838-1.271 2.838-2.838 0-1.12-0.65-2.086-1.593-2.546 0.52-0.123 1.061-0.189 1.618-0.189 3.88 0 7.027 3.146 7.027 7.027 0 3.882-3.145 7.027-7.025 7.027z"></path>
</svg>
