<svg xmlns="http://www.w3.org/2000/svg" width="32" height="32" viewBox="0 0 32 32"><path d="M16.032.002C9.636.002 4.45 5.186 4.45 11.582c0 8.611 9.261 18.073 11.58 18.073s11.58-9.462 11.58-18.073C27.612 5.186 22.426.002 16.031.002zm0 18.644c-3.88 0-7.027-3.146-7.027-7.027 0-1.537.496-2.961 1.334-4.118.089 1.486 1.321 2.664 2.829 2.664 1.568 0 2.838-1.271 2.838-2.838 0-1.12-.65-2.086-1.593-2.546.52-.123 1.061-.189 1.618-.189 3.88 0 7.027 3.146 7.027 7.027 0 3.882-3.145 7.027-7.025 7.027z"/></svg>