<svg xmlns="http://www.w3.org/2000/svg" width="32" height="32" viewBox="0 0 32 32"><path d="M28.571 22.143q0 .482-.179 1.259t-.375 1.223q-.375.893-2.179 1.893-1.679.911-3.321.911-.482 0-.938-.063t-1.027-.223-.848-.259-.991-.366-.875-.321q-1.75-.625-3.125-1.482-2.286-1.411-4.723-3.848t-3.848-4.723q-.857-1.375-1.482-3.125-.054-.161-.321-.875t-.366-.991-.259-.848-.223-1.027-.063-.938q0-1.643.911-3.321 1-1.804 1.893-2.179.446-.196 1.223-.375t1.259-.179q.25 0 .375.054.321.107.946 1.357.196.339.536.964t.625 1.134.554.955q.054.071.313.446t.384.634.125.509q0 .357-.509.893t-1.107.982-1.107.946-.509.821q0 .161.089.402t.152.366.25.429.205.339q1.357 2.446 3.107 4.196t4.196 3.107q.036.018.339.205t.429.25.366.152.402.089q.321 0 .821-.509t.946-1.107.982-1.107.893-.509q.25 0 .509.125t.634.384.446.313q.446.268.955.554t1.134.625.964.536q1.25.625 1.357.946.054.125.054.375z"/></svg>