<?xml version="1.0" encoding="UTF-8"?>
<svg xmlns="http://www.w3.org/2000/svg" xmlns:xlink="http://www.w3.org/1999/xlink" width="32px" height="32px" viewBox="0 0 32 32" version="1.1">
<path d="M 18.984375 20.464844 C 19.097656 20.574219 19.097656 20.757812 18.984375 20.871094 C 18.363281 21.488281 17.390625 21.789062 16.007812 21.789062 L 16 21.785156 L 15.988281 21.789062 C 14.605469 21.789062 13.632812 21.488281 13.011719 20.871094 C 12.898438 20.757812 12.898438 20.574219 13.011719 20.464844 C 13.125 20.351562 13.308594 20.351562 13.421875 20.464844 C 13.929688 20.964844 14.765625 21.210938 15.988281 21.210938 L 16 21.214844 L 16.007812 21.210938 C 17.230469 21.210938 18.066406 20.964844 18.574219 20.464844 C 18.6875 20.351562 18.871094 20.351562 18.984375 20.464844 Z M 14.398438 17.238281 C 14.398438 16.5625 13.84375 16.015625 13.167969 16.015625 C 12.488281 16.015625 11.9375 16.5625 11.9375 17.238281 C 11.9375 17.914062 12.488281 18.464844 13.167969 18.464844 C 13.84375 18.464844 14.398438 17.914062 14.398438 17.238281 Z M 32 16 C 32 24.835938 24.835938 32 16 32 C 7.164062 32 0 24.835938 0 16 C 0 7.164062 7.164062 0 16 0 C 24.835938 0 32 7.164062 32 16 Z M 25.332031 15.828125 C 25.332031 14.691406 24.40625 13.769531 23.265625 13.769531 C 22.710938 13.769531 22.207031 13.992188 21.835938 14.351562 C 20.425781 13.425781 18.519531 12.835938 16.414062 12.757812 L 17.566406 9.125 L 20.691406 9.859375 L 20.6875 9.902344 C 20.6875 10.832031 21.445312 11.585938 22.378906 11.585938 C 23.308594 11.585938 24.066406 10.832031 24.066406 9.902344 C 24.066406 8.976562 23.308594 8.222656 22.378906 8.222656 C 21.660156 8.222656 21.050781 8.667969 20.804688 9.292969 L 17.4375 8.503906 C 17.292969 8.46875 17.140625 8.554688 17.097656 8.699219 L 15.808594 12.746094 C 13.601562 12.773438 11.601562 13.371094 10.132812 14.324219 C 9.761719 13.984375 9.273438 13.769531 8.730469 13.769531 C 7.59375 13.769531 6.667969 14.691406 6.667969 15.828125 C 6.667969 16.582031 7.082031 17.234375 7.691406 17.59375 C 7.652344 17.8125 7.625 18.035156 7.625 18.261719 C 7.625 21.300781 11.363281 23.777344 15.960938 23.777344 C 20.558594 23.777344 24.296875 21.300781 24.296875 18.261719 C 24.296875 18.046875 24.277344 17.839844 24.238281 17.632812 C 24.886719 17.285156 25.332031 16.609375 25.332031 15.828125 Z M 18.835938 16.015625 C 18.160156 16.015625 17.609375 16.566406 17.609375 17.242188 C 17.609375 17.914062 18.160156 18.464844 18.835938 18.464844 C 19.515625 18.464844 20.066406 17.914062 20.066406 17.242188 C 20.066406 16.566406 19.515625 16.015625 18.835938 16.015625 Z M 18.835938 16.015625 "/>
</svg>