<?xml version="1.0" encoding="utf-8"?>
<!-- Generated by IcoMoon.io -->
<!DOCTYPE svg PUBLIC "-//W3C//DTD SVG 1.1//EN" "http://www.w3.org/Graphics/SVG/1.1/DTD/svg11.dtd">
<svg version="1.1" xmlns="http://www.w3.org/2000/svg" xmlns:xlink="http://www.w3.org/1999/xlink" width="32" height="32" viewBox="0 0 32 32">
<path fill="#000" d="M10.286 24q0 1.429-1 2.429t-2.429 1-2.429-1-1-2.429 1-2.429 2.429-1 2.429 1 1 2.429zM19.429 26.196q0.036 0.5-0.304 0.857-0.321 0.375-0.839 0.375h-2.411q-0.446 0-0.768-0.295t-0.357-0.741q-0.393-4.089-3.295-6.991t-6.991-3.295q-0.446-0.036-0.741-0.357t-0.295-0.768v-2.411q0-0.518 0.375-0.839 0.304-0.304 0.768-0.304h0.089q2.857 0.232 5.464 1.438t4.625 3.241q2.036 2.018 3.241 4.625t1.438 5.464zM28.571 26.232q0.036 0.482-0.321 0.839-0.321 0.357-0.821 0.357h-2.554q-0.464 0-0.795-0.313t-0.348-0.759q-0.214-3.839-1.804-7.295t-4.134-6-6-4.134-7.295-1.821q-0.446-0.018-0.759-0.348t-0.313-0.777v-2.554q0-0.5 0.357-0.821 0.321-0.321 0.786-0.321h0.054q4.679 0.232 8.955 2.143t7.598 5.25q3.339 3.321 5.25 7.598t2.143 8.955z"></path>
</svg>
