<svg xmlns="http://www.w3.org/2000/svg" width="32" height="32" viewBox="0 0 32 32"><path d="M10.286 24q0 1.429-1 2.429t-2.429 1-2.429-1-1-2.429 1-2.429 2.429-1 2.429 1 1 2.429zm9.143 2.196q.036.5-.304.857-.321.375-.839.375h-2.411q-.446 0-.768-.295t-.357-.741q-.393-4.089-3.295-6.991t-6.991-3.295q-.446-.036-.741-.357t-.295-.768V12.57q0-.518.375-.839.304-.304.768-.304h.089q2.857.232 5.464 1.438t4.625 3.241q2.036 2.018 3.241 4.625t1.438 5.464zm9.142.036q.036.482-.321.839-.321.357-.821.357h-2.554q-.464 0-.795-.313t-.348-.759q-.214-3.839-1.804-7.295t-4.134-6-6-4.134-7.295-1.821q-.446-.018-.759-.348t-.313-.777V3.427q0-.5.357-.821.321-.321.786-.321h.054q4.679.232 8.955 2.143t7.598 5.25q3.339 3.321 5.25 7.598t2.143 8.955z"/></svg>