<?xml version="1.0" encoding="utf-8"?>
<!-- Generated by IcoMoon.io -->
<!DOCTYPE svg PUBLIC "-//W3C//DTD SVG 1.1//EN" "http://www.w3.org/Graphics/SVG/1.1/DTD/svg11.dtd">
<svg version="1.1" xmlns="http://www.w3.org/2000/svg" xmlns:xlink="http://www.w3.org/1999/xlink" width="32" height="32" viewBox="0 0 32 32">
<path fill="#000" d="M16.355 2.455c1.563-0.011 2.964 0.388 4.207 1.198 1.241 0.811 2.195 1.932 2.861 3.368 0.314 0.677 0.471 1.72 0.471 3.13 0 0.548-0.052 1.662-0.157 3.341 0.163 0.082 0.327 0.123 0.489 0.123 0.209 0 0.507-0.079 0.891-0.236 0.386-0.157 0.682-0.236 0.893-0.236 0.337 0 0.664 0.105 0.98 0.314 0.314 0.211 0.473 0.479 0.473 0.805 0 0.373-0.184 0.688-0.552 0.945s-0.77 0.441-1.207 0.552c-0.438 0.111-0.839 0.28-1.207 0.507s-0.552 0.505-0.552 0.83c0 0.175 0.070 0.425 0.211 0.752 0.432 0.957 1.029 1.83 1.793 2.623s1.605 1.382 2.527 1.766c0.327 0.139 0.793 0.273 1.4 0.402 0.327 0.070 0.489 0.275 0.489 0.613 0 0.816-1.277 1.418-3.83 1.802-0.082 0.129-0.146 0.355-0.193 0.682s-0.129 0.598-0.245 0.813c-0.116 0.216-0.309 0.323-0.577 0.323-0.234 0-0.595-0.038-1.084-0.114-0.489-0.075-0.863-0.114-1.12-0.114-0.432 0-0.793 0.029-1.084 0.087-0.373 0.059-0.741 0.189-1.102 0.393s-0.7 0.425-1.014 0.664c-0.314 0.239-0.654 0.475-1.014 0.709s-0.805 0.429-1.329 0.586c-0.525 0.157-1.102 0.236-1.732 0.236-0.607 0-1.17-0.079-1.688-0.236-0.52-0.157-0.957-0.354-1.313-0.586-0.355-0.234-0.691-0.47-1.005-0.709s-0.654-0.461-1.014-0.664c-0.361-0.204-0.723-0.336-1.084-0.393-0.304-0.059-0.671-0.087-1.102-0.087-0.28 0-0.662 0.045-1.145 0.13-0.484 0.087-0.825 0.13-1.023 0.13-0.291 0-0.496-0.107-0.612-0.323s-0.198-0.493-0.245-0.83c-0.046-0.337-0.111-0.571-0.193-0.7-2.554-0.384-3.83-0.986-3.83-1.802 0-0.337 0.163-0.543 0.489-0.613 0.605-0.129 1.073-0.262 1.4-0.402 0.909-0.373 1.752-0.962 2.527-1.766 0.775-0.805 1.373-1.679 1.793-2.623 0.139-0.327 0.209-0.577 0.209-0.752 0-0.327-0.184-0.604-0.552-0.83s-0.773-0.4-1.216-0.516c-0.443-0.116-0.848-0.3-1.216-0.552-0.368-0.25-0.552-0.557-0.552-0.918 0-0.314 0.152-0.58 0.455-0.796s0.623-0.323 0.963-0.323c0.175 0 0.455 0.075 0.839 0.227 0.386 0.152 0.693 0.227 0.927 0.227 0.211 0 0.396-0.041 0.561-0.123-0.105-1.655-0.157-2.764-0.157-3.323 0-1.423 0.157-2.471 0.473-3.148 0.746-1.598 1.748-2.752 3.009-3.462 1.257-0.711 2.796-1.077 4.614-1.1z"></path>
</svg>
