<svg xmlns="http://www.w3.org/2000/svg" width="32" height="32" viewBox="0 0 32 32"><path d="M16.355 2.455c1.563-.011 2.964.388 4.207 1.198 1.241.811 2.195 1.932 2.861 3.368.314.677.471 1.72.471 3.13 0 .548-.052 1.662-.157 3.341.163.082.327.123.489.123.209 0 .507-.079.891-.236.386-.157.682-.236.893-.236.337 0 .664.105.98.314.314.211.473.479.473.805 0 .373-.184.688-.552.945s-.77.441-1.207.552c-.438.111-.839.28-1.207.507s-.552.505-.552.83c0 .175.07.425.211.752.432.957 1.029 1.83 1.793 2.623s1.605 1.382 2.527 1.766c.327.139.793.273 1.4.402.327.07.489.275.489.613 0 .816-1.277 1.418-3.83 1.802-.082.129-.146.355-.193.682s-.129.598-.245.813c-.116.216-.309.323-.577.323-.234 0-.595-.038-1.084-.114-.489-.075-.863-.114-1.12-.114-.432 0-.793.029-1.084.087-.373.059-.741.189-1.102.393s-.7.425-1.014.664c-.314.239-.654.475-1.014.709s-.805.429-1.329.586c-.525.157-1.102.236-1.732.236-.607 0-1.17-.079-1.688-.236-.52-.157-.957-.354-1.313-.586-.355-.234-.691-.47-1.005-.709s-.654-.461-1.014-.664c-.361-.204-.723-.336-1.084-.393-.304-.059-.671-.087-1.102-.087-.28 0-.662.045-1.145.13-.484.087-.825.13-1.023.13-.291 0-.496-.107-.612-.323s-.198-.493-.245-.83c-.046-.337-.111-.571-.193-.7-2.554-.384-3.83-.986-3.83-1.802 0-.337.163-.543.489-.613.605-.129 1.073-.262 1.4-.402.909-.373 1.752-.962 2.527-1.766.775-.805 1.373-1.679 1.793-2.623.139-.327.209-.577.209-.752 0-.327-.184-.604-.552-.83s-.773-.4-1.216-.516c-.443-.116-.848-.3-1.216-.552-.368-.25-.552-.557-.552-.918 0-.314.152-.58.455-.796s.623-.323.963-.323c.175 0 .455.075.839.227.386.152.693.227.927.227.211 0 .396-.041.561-.123-.105-1.655-.157-2.764-.157-3.323 0-1.423.157-2.471.473-3.148.746-1.598 1.748-2.752 3.009-3.462 1.257-.711 2.796-1.077 4.614-1.1z"/></svg>