<svg xmlns="http://www.w3.org/2000/svg" width="32" height="32" viewBox="0 0 32 32"><path d="M17.495 12.636v-1.72c0-.409-.146-.757-.438-1.05-.291-.291-.641-.438-1.05-.438s-.757.146-1.05.438c-.291.291-.438.641-.438 1.05v8.92c0 1.7-.613 3.154-1.836 4.357S9.988 26 8.269 26c-1.73 0-3.204-.609-4.423-1.829s-1.829-2.695-1.829-4.423v-3.877h4.78v3.818c0 .418.146.77.438 1.057s.641.43 1.05.43c.409 0 .757-.143 1.05-.43.291-.288.438-.639.438-1.057v-9.036c0-1.661.614-3.08 1.843-4.255s2.695-1.764 4.395-1.764c1.711 0 3.177.593 4.402 1.779s1.836 2.614 1.836 4.286v1.982l-2.843.845-1.911-.889zm7.725 3.235H30v3.877c0 1.73-.609 3.204-1.829 4.423S25.476 26 23.748 26c-1.72 0-3.191-.605-4.416-1.814s-1.836-2.67-1.836-4.38v-3.905l1.909.889 2.843-.845v3.936c0 .409.146.755.438 1.043s.641.43 1.05.43c.409 0 .757-.143 1.05-.43.291-.288.438-.634.438-1.043v-4.009z"/></svg>