<?xml version="1.0" encoding="utf-8"?>
<!-- Generated by IcoMoon.io -->
<!DOCTYPE svg PUBLIC "-//W3C//DTD SVG 1.1//EN" "http://www.w3.org/Graphics/SVG/1.1/DTD/svg11.dtd">
<svg version="1.1" xmlns="http://www.w3.org/2000/svg" xmlns:xlink="http://www.w3.org/1999/xlink" width="32" height="32" viewBox="0 0 32 32">
<path fill="#000" d="M17.495 12.636v-1.72c0-0.409-0.146-0.757-0.438-1.050-0.291-0.291-0.641-0.438-1.050-0.438s-0.757 0.146-1.050 0.438c-0.291 0.291-0.438 0.641-0.438 1.050v8.92c0 1.7-0.613 3.154-1.836 4.357s-2.695 1.807-4.414 1.807c-1.73 0-3.204-0.609-4.423-1.829s-1.829-2.695-1.829-4.423v-3.877h4.78v3.818c0 0.418 0.146 0.77 0.438 1.057s0.641 0.43 1.050 0.43c0.409 0 0.757-0.143 1.050-0.43 0.291-0.288 0.438-0.639 0.438-1.057v-9.036c0-1.661 0.614-3.080 1.843-4.255s2.695-1.764 4.395-1.764c1.711 0 3.177 0.593 4.402 1.779s1.836 2.614 1.836 4.286v1.982l-2.843 0.845-1.911-0.889zM25.22 15.871h4.78v3.877c0 1.73-0.609 3.204-1.829 4.423s-2.695 1.829-4.423 1.829c-1.72 0-3.191-0.605-4.416-1.814s-1.836-2.67-1.836-4.38v-3.905l1.909 0.889 2.843-0.845v3.936c0 0.409 0.146 0.755 0.438 1.043s0.641 0.43 1.050 0.43c0.409 0 0.757-0.143 1.050-0.43 0.291-0.288 0.438-0.634 0.438-1.043v-4.009z"></path>
</svg>
