<svg xmlns="http://www.w3.org/2000/svg" viewBox="0 0 32 32"><path d="M7.744 16.108A1.3 1.3 0 1 0 7.744 18.708000000000002 1.3 1.3 0 1 0 7.744 16.108zM23.765 16.090999999999998A1.3 1.3 0 1 0 23.765 18.691 1.3 1.3 0 1 0 23.765 16.090999999999998z"/><path d="M7.942,13.542c-2.135,0-3.866,1.731-3.866,3.867c0,2.136,1.731,3.866,3.866,3.866c2.136,0,3.867-1.73,3.867-3.866C11.809,15.273,10.078,13.542,7.942,13.542z M7.942,20.087c-1.48,0-2.679-1.199-2.679-2.679c0-1.48,1.199-2.679,2.679-2.679c1.48,0,2.679,1.199,2.679,2.679C10.622,18.888,9.422,20.087,7.942,20.087z M23.963,13.524c-2.136,0-3.866,1.731-3.866,3.867c0,2.135,1.73,3.866,3.866,3.866c2.135,0,3.866-1.731,3.866-3.866C27.829,15.255,26.098,13.524,23.963,13.524z M23.963,20.07c-1.48,0-2.679-1.199-2.679-2.679c0-1.48,1.199-2.68,2.679-2.68s2.679,1.199,2.679,2.68C26.642,18.87,25.443,20.07,23.963,20.07z M32,9.574h-5.324c-2.715-1.827-6.423-2.968-10.674-2.968c-4.254,0-8.216,1.14-10.931,2.968H0c0.827,0.967,1.439,2.277,1.591,3.176c-0.956,1.314-1.522,2.929-1.522,4.678c0,4.4,3.566,7.966,7.966,7.966c2.496,0,4.723-1.15,6.184-2.947C14.814,23.143,15.8,24.543,16,24.95c0,0,1.144-1.708,1.787-2.496c1.46,1.793,3.686,2.94,6.179,2.94c4.399,0,7.966-3.567,7.966-7.966c0-1.748-0.567-3.362-1.523-4.675C30.56,11.853,31.172,10.543,32,9.574z M8.035,23.84c-3.542,0-6.413-2.871-6.413-6.413c0-3.541,2.871-6.412,6.413-6.412s6.413,2.871,6.413,6.412C14.448,20.97,11.576,23.84,8.035,23.84z M8.047,9.463c2.279-0.993,5.109-1.528,7.955-1.528c2.851,0,5.434,0.537,7.715,1.534C19.434,9.6,16.001,13.111,16,17.426C15.999,13.032,12.44,9.469,8.047,9.463z M23.966,23.84c-3.542,0-6.413-2.871-6.413-6.413c0-3.541,2.871-6.412,6.413-6.412c3.541,0,6.412,2.871,6.412,6.412C30.378,20.97,27.507,23.84,23.966,23.84z"/></svg>