<?xml version="1.0" encoding="UTF-8"?>
<svg xmlns="http://www.w3.org/2000/svg" xmlns:xlink="http://www.w3.org/1999/xlink" width="32px" height="32px" viewBox="0 0 32 32" version="1.1">
<path d="M 32 9.613281 L 27.472656 9.613281 C 24.335938 7.480469 20.5 6.398438 16 6.398438 C 11.5 6.398438 7.660156 7.480469 4.527344 9.613281 L 0 9.613281 C 0.683594 10.285156 1.324219 11.757812 1.589844 12.878906 C 0.5625 14.242188 0.00390625 15.90625 0 17.613281 C 0 22.023438 3.589844 25.613281 8 25.613281 C 10.039062 25.609375 12 24.820312 13.476562 23.414062 L 16 27.199219 L 18.523438 23.414062 C 20 24.824219 21.960938 25.613281 24 25.617188 C 28.410156 25.617188 32 22.027344 32 17.617188 C 32 15.835938 31.398438 14.207031 30.410156 12.878906 C 30.675781 11.761719 31.316406 10.289062 32 9.617188 Z M 8 23.054688 C 5 23.054688 2.558594 20.613281 2.558594 17.613281 C 2.558594 14.613281 5 12.175781 8 12.175781 C 11 12.175781 13.441406 14.613281 13.441406 17.613281 C 13.441406 20.613281 11 23.054688 8 23.054688 Z M 16 17.613281 C 15.996094 13.808594 13.3125 10.535156 9.585938 9.773438 C 11.511719 9.125 13.648438 8.800781 16 8.800781 C 18.351562 8.800781 20.488281 9.125 22.414062 9.777344 C 18.6875 10.535156 16.007812 13.808594 16 17.613281 Z M 24 23.054688 C 21 23.054688 18.558594 20.613281 18.558594 17.613281 C 18.558594 14.613281 21 12.175781 24 12.175781 C 27 12.175781 29.441406 14.613281 29.441406 17.613281 C 29.441406 20.613281 27 23.054688 24 23.054688 Z M 8 14.175781 C 6.105469 14.175781 4.558594 15.71875 4.558594 17.617188 C 4.558594 19.511719 6.105469 21.054688 8 21.054688 C 9.894531 21.054688 11.441406 19.511719 11.441406 17.617188 C 11.441406 15.71875 9.894531 14.175781 8 14.175781 Z M 8 18.640625 C 7.425781 18.640625 6.960938 18.175781 6.960938 17.601562 C 6.960938 17.027344 7.425781 16.5625 8 16.5625 C 8.574219 16.5625 9.039062 17.027344 9.039062 17.601562 C 9.039062 18.175781 8.574219 18.640625 8 18.640625 Z M 24 14.175781 C 22.105469 14.175781 20.558594 15.71875 20.558594 17.617188 C 20.558594 19.511719 22.105469 21.054688 24 21.054688 C 25.894531 21.054688 27.441406 19.511719 27.441406 17.617188 C 27.441406 15.71875 25.894531 14.175781 24 14.175781 Z M 24 18.640625 C 23.425781 18.640625 22.960938 18.175781 22.960938 17.601562 C 22.960938 17.027344 23.425781 16.5625 24 16.5625 C 24.574219 16.5625 25.039062 17.027344 25.039062 17.601562 C 25.039062 18.175781 24.574219 18.640625 24 18.640625 Z M 24 18.640625 "/>
</svg>
