<svg xmlns="http://www.w3.org/2000/svg" width="32" height="32" viewBox="0 0 32 32"><path d="M23.141 23.732l1.429 4.232c-.273.416-.934.809-1.982 1.179s-2.102.559-3.161.571c-1.238.023-2.371-.13-3.402-.464s-1.879-.773-2.545-1.321-1.232-1.179-1.696-1.893-.795-1.429-.991-2.143-.295-1.416-.295-2.107v-9.714h-3V8.233c.857-.309 1.625-.723 2.304-1.241s1.22-1.054 1.625-1.607.75-1.161 1.036-1.821.488-1.25.607-1.768.209-1.045.268-1.58c.012-.059.039-.111.08-.152s.088-.063.134-.063h4.357v7.571h5.946v4.5h-5.964v9.25c0 .357.039.691.116 1s.211.621.402.938.486.563.884.741.884.262 1.455.25c.929-.023 1.727-.196 2.393-.518z"/></svg>