<?xml version="1.0" encoding="utf-8"?>
<!-- Generated by IcoMoon.io -->
<!DOCTYPE svg PUBLIC "-//W3C//DTD SVG 1.1//EN" "http://www.w3.org/Graphics/SVG/1.1/DTD/svg11.dtd">
<svg version="1.1" xmlns="http://www.w3.org/2000/svg" xmlns:xlink="http://www.w3.org/1999/xlink" width="32" height="32" viewBox="0 0 32 32">
<path fill="#000" d="M23.141 23.732l1.429 4.232c-0.273 0.416-0.934 0.809-1.982 1.179s-2.102 0.559-3.161 0.571c-1.238 0.023-2.371-0.13-3.402-0.464s-1.879-0.773-2.545-1.321-1.232-1.179-1.696-1.893-0.795-1.429-0.991-2.143-0.295-1.416-0.295-2.107v-9.714h-3v-3.839c0.857-0.309 1.625-0.723 2.304-1.241s1.22-1.054 1.625-1.607 0.75-1.161 1.036-1.821 0.488-1.25 0.607-1.768 0.209-1.045 0.268-1.58c0.012-0.059 0.039-0.111 0.080-0.152s0.088-0.063 0.134-0.063h4.357v7.571h5.946v4.5h-5.964v9.25c0 0.357 0.039 0.691 0.116 1s0.211 0.621 0.402 0.938 0.486 0.563 0.884 0.741 0.884 0.262 1.455 0.25c0.929-0.023 1.727-0.196 2.393-0.518z"></path>
</svg>
