<svg xmlns="http://www.w3.org/2000/svg" width="32" height="32" viewBox="0 0 32 32"><path d="M30.518 9.25q-.179 4.214-5.929 11.625-5.946 7.696-10.036 7.696-2.536 0-4.286-4.696-.786-2.857-2.357-8.607-1.286-4.679-2.804-4.679-.321 0-2.268 1.357l-1.375-1.75q.429-.375 1.929-1.723T5.713 6.41q2.786-2.464 4.304-2.607 1.696-.161 2.732.991t1.446 3.634q.786 5.125 1.179 6.661.982 4.446 2.143 4.446.911 0 2.75-2.875 1.804-2.875 1.946-4.393.232-2.482-1.946-2.482-1.018 0-2.161.464 2.143-7.018 8.196-6.821 4.482.143 4.214 5.821z"/></svg>