<svg xmlns="http://www.w3.org/2000/svg" width="32" height="32" viewBox="0 0 32 32"><path d="M29.018 14.768v3.536q-1.804.411-3.536.411-1.161 2.429-2.955 4.839t-3.241 3.848T17 29.304q-1.429.804-2.893-.054-.5-.304-1.08-.777t-1.518-1.491-1.83-2.295-1.92-3.286-1.884-4.357-1.634-5.616-1.259-6.964h5.054q.464 3.893 1.25 7.116t1.866 5.661 2.17 4.205 2.5 3.482q3.018-3.018 5.125-7.25-2.536-1.286-3.982-3.929t-1.446-5.946q0-3.429 1.857-5.616t5.071-2.188q3.179 0 4.875 1.884t1.696 5.313q0 2.839-1.036 5.107-.125.018-.348.054t-.821.036-1.125-.107-1.107-.455-.902-.92q.554-1.839.554-3.286 0-1.554-.518-2.357t-1.411-.804q-.946 0-1.518.884t-.571 2.509q0 3.321 1.875 5.241t4.768 1.92q1.107 0 2.161-.25z"/></svg>