<?xml version="1.0" encoding="utf-8"?>
<!-- Generated by IcoMoon.io -->
<!DOCTYPE svg PUBLIC "-//W3C//DTD SVG 1.1//EN" "http://www.w3.org/Graphics/SVG/1.1/DTD/svg11.dtd">
<svg version="1.1" xmlns="http://www.w3.org/2000/svg" xmlns:xlink="http://www.w3.org/1999/xlink" width="32" height="32" viewBox="0 0 32 32">
<path fill="#000" d="M29.018 14.768v3.536q-1.804 0.411-3.536 0.411-1.161 2.429-2.955 4.839t-3.241 3.848-2.286 1.902q-1.429 0.804-2.893-0.054-0.5-0.304-1.080-0.777t-1.518-1.491-1.83-2.295-1.92-3.286-1.884-4.357-1.634-5.616-1.259-6.964h5.054q0.464 3.893 1.25 7.116t1.866 5.661 2.17 4.205 2.5 3.482q3.018-3.018 5.125-7.25-2.536-1.286-3.982-3.929t-1.446-5.946q0-3.429 1.857-5.616t5.071-2.188q3.179 0 4.875 1.884t1.696 5.313q0 2.839-1.036 5.107-0.125 0.018-0.348 0.054t-0.821 0.036-1.125-0.107-1.107-0.455-0.902-0.92q0.554-1.839 0.554-3.286 0-1.554-0.518-2.357t-1.411-0.804q-0.946 0-1.518 0.884t-0.571 2.509q0 3.321 1.875 5.241t4.768 1.92q1.107 0 2.161-0.25z"></path>
</svg>
