<svg xmlns="http://www.w3.org/2000/svg" xmlns:xlink="http://www.w3.org/1999/xlink" width="32px" height="32px" viewBox="0 0 32 32" version="1.1">
<path d="M 0.0742188 32 L 2.324219 23.78125 C 0.9375 21.378906 0.207031 18.652344 0.210938 15.855469 C 0.214844 7.113281 7.328125 0 16.066406 0 C 20.308594 0 24.289062 1.652344 27.285156 4.652344 C 30.277344 7.648438 31.925781 11.632812 31.925781 15.871094 C 31.921875 24.613281 24.808594 31.726562 16.066406 31.726562 C 13.414062 31.722656 10.796875 31.058594 8.484375 29.792969 Z M 8.871094 26.925781 C 11.105469 28.25 13.238281 29.046875 16.0625 29.046875 C 23.324219 29.046875 29.242188 23.132812 29.246094 15.867188 C 29.25 8.585938 23.359375 2.679688 16.070312 2.675781 C 8.800781 2.675781 2.890625 8.589844 2.886719 15.855469 C 2.886719 18.824219 3.753906 21.042969 5.214844 23.367188 L 3.882812 28.230469 Z M 24.054688 19.636719 C 23.957031 19.472656 23.691406 19.375 23.292969 19.175781 C 22.898438 18.976562 20.949219 18.019531 20.585938 17.886719 C 20.222656 17.753906 19.960938 17.6875 19.695312 18.085938 C 19.429688 18.480469 18.671875 19.375 18.441406 19.636719 C 18.210938 19.902344 17.976562 19.9375 17.582031 19.738281 C 17.183594 19.539062 15.90625 19.121094 14.394531 17.769531 C 13.21875 16.71875 12.421875 15.421875 12.191406 15.023438 C 11.960938 14.628906 12.167969 14.414062 12.363281 14.21875 C 12.542969 14.039062 12.761719 13.753906 12.957031 13.523438 C 13.160156 13.292969 13.226562 13.128906 13.359375 12.863281 C 13.492188 12.597656 13.425781 12.367188 13.324219 12.167969 C 13.226562 11.96875 12.433594 10.019531 12.105469 9.226562 C 11.78125 8.453125 11.453125 8.558594 11.210938 8.546875 L 10.453125 8.535156 C 10.1875 8.535156 9.757812 8.632812 9.394531 9.03125 C 9.035156 9.425781 8.007812 10.382812 8.007812 12.335938 C 8.007812 14.285156 9.429688 16.167969 9.625 16.433594 C 9.824219 16.699219 12.421875 20.699219 16.394531 22.414062 C 17.339844 22.824219 18.078125 23.066406 18.652344 23.25 C 19.601562 23.550781 20.464844 23.507812 21.148438 23.40625 C 21.910156 23.292969 23.492188 22.449219 23.824219 21.523438 C 24.15625 20.597656 24.15625 19.804688 24.054688 19.636719 Z M 24.054688 19.636719 "/>
</svg>
