<svg xmlns="http://www.w3.org/2000/svg" viewBox="0 0 32 32"><path d="M 19.875 17.394531 C 20.03125 17.394531 20.609375 17.65625 21.617188 18.179688 C 22.621094 18.703125 23.15625 19.019531 23.214844 19.125 C 23.238281 19.183594 23.25 19.273438 23.25 19.394531 C 23.25 19.785156 23.148438 20.238281 22.945312 20.75 C 22.757812 21.214844 22.332031 21.605469 21.679688 21.917969 C 21.023438 22.234375 20.417969 22.394531 19.855469 22.394531 C 19.179688 22.394531 18.046875 22.023438 16.464844 21.285156 C 15.296875 20.75 14.285156 20.046875 13.429688 19.179688 C 12.570312 18.308594 11.691406 17.207031 10.785156 15.875 C 9.929688 14.601562 9.507812 13.445312 9.519531 12.410156 L 9.519531 12.269531 C 9.554688 11.183594 9.992188 10.242188 10.839844 9.445312 C 11.125 9.183594 11.433594 9.054688 11.769531 9.054688 C 11.839844 9.054688 11.945312 9.0625 12.089844 9.082031 C 12.230469 9.097656 12.34375 9.105469 12.429688 9.105469 C 12.65625 9.105469 12.8125 9.144531 12.902344 9.222656 C 12.992188 9.300781 13.082031 9.464844 13.179688 9.714844 C 13.273438 9.953125 13.46875 10.476562 13.769531 11.285156 C 14.066406 12.09375 14.214844 12.542969 14.214844 12.625 C 14.214844 12.875 14.007812 13.21875 13.597656 13.652344 C 13.1875 14.085938 12.980469 14.363281 12.980469 14.480469 C 12.980469 14.566406 13.011719 14.65625 13.070312 14.75 C 13.476562 15.617188 14.082031 16.433594 14.894531 17.195312 C 15.558594 17.828125 16.457031 18.429688 17.589844 19 C 17.730469 19.082031 17.863281 19.125 17.980469 19.125 C 18.160156 19.125 18.480469 18.835938 18.945312 18.257812 C 19.410156 17.679688 19.71875 17.394531 19.875 17.394531 Z M 16.25 26.855469 C 17.761719 26.855469 19.210938 26.558594 20.597656 25.964844 C 21.984375 25.367188 23.179688 24.570312 24.179688 23.570312 C 25.179688 22.570312 25.976562 21.378906 26.570312 19.992188 C 27.167969 18.605469 27.464844 17.15625 27.464844 15.644531 C 27.464844 14.132812 27.167969 12.679688 26.570312 11.292969 C 25.976562 9.90625 25.179688 8.714844 24.179688 7.714844 C 23.179688 6.714844 21.984375 5.917969 20.597656 5.320312 C 19.210938 4.726562 17.761719 4.429688 16.25 4.429688 C 14.738281 4.429688 13.289062 4.726562 11.902344 5.320312 C 10.515625 5.917969 9.320312 6.714844 8.320312 7.714844 C 7.320312 8.714844 6.523438 9.90625 5.929688 11.292969 C 5.332031 12.679688 5.035156 14.132812 5.035156 15.644531 C 5.035156 18.058594 5.75 20.25 7.179688 22.214844 L 5.769531 26.375 L 10.089844 25 C 11.96875 26.238281 14.023438 26.855469 16.25 26.855469 Z M 16.25 2.179688 C 18.070312 2.179688 19.8125 2.535156 21.472656 3.25 C 23.132812 3.964844 24.566406 4.921875 25.769531 6.125 C 26.96875 7.328125 27.929688 8.757812 28.644531 10.417969 C 29.355469 12.082031 29.714844 13.820312 29.714844 15.644531 C 29.714844 17.464844 29.355469 19.207031 28.644531 20.867188 C 27.929688 22.527344 26.96875 23.957031 25.769531 25.160156 C 24.566406 26.363281 23.132812 27.320312 21.472656 28.035156 C 19.8125 28.75 18.070312 29.105469 16.25 29.105469 C 13.929688 29.105469 11.757812 28.546875 9.730469 27.429688 L 2.285156 29.820312 L 4.714844 22.589844 C 3.429688 20.46875 2.785156 18.15625 2.785156 15.644531 C 2.785156 13.820312 3.144531 12.082031 3.855469 10.417969 C 4.570312 8.757812 5.53125 7.328125 6.730469 6.125 C 7.933594 4.921875 9.367188 3.964844 11.027344 3.25 C 12.6875 2.535156 14.429688 2.179688 16.25 2.179688 Z M 16.25 2.179688 "/></svg>