<svg xmlns="http://www.w3.org/2000/svg" width="32" height="32" viewBox="0 0 32 32"><path d="M14.15 11.654c-.118.213-1.636 2.907-4.554 8.08-.32.543-.704.814-1.152.814H4.208c-.248 0-.432-.1-.55-.302-.118-.2-.118-.413 0-.637l4.484-7.938c.012 0 .012-.005 0-.018L5.29 6.708c-.141-.259-.148-.479-.018-.655.107-.177.295-.266.568-.266h4.236c.471 0 .863.266 1.17.798l2.904 5.068zM28.434.277c.13.189.13.407 0 .655l-9.357 16.552v.018L25.031 28.4c.13.236.136.455.018.655-.118.177-.307.266-.568.266h-4.236c-.496 0-.886-.266-1.17-.798L13.07 17.502c.213-.379 3.35-5.943 9.411-16.693.295-.532.673-.798 1.134-.798h4.271c.259 0 .441.089.548.266z"/></svg>