<?xml version="1.0" encoding="utf-8"?>
<!-- Generated by IcoMoon.io -->
<!DOCTYPE svg PUBLIC "-//W3C//DTD SVG 1.1//EN" "http://www.w3.org/Graphics/SVG/1.1/DTD/svg11.dtd">
<svg version="1.1" xmlns="http://www.w3.org/2000/svg" xmlns:xlink="http://www.w3.org/1999/xlink" width="32" height="32" viewBox="0 0 32 32">
<path fill="#000" d="M14.15 11.654c-0.118 0.213-1.636 2.907-4.554 8.080-0.32 0.543-0.704 0.814-1.152 0.814h-4.236c-0.248 0-0.432-0.1-0.55-0.302-0.118-0.2-0.118-0.413 0-0.637l4.484-7.938c0.012 0 0.012-0.005 0-0.018l-2.852-4.945c-0.141-0.259-0.148-0.479-0.018-0.655 0.107-0.177 0.295-0.266 0.568-0.266h4.236c0.471 0 0.863 0.266 1.17 0.798l2.904 5.068zM28.434 0.277c0.13 0.189 0.13 0.407 0 0.655l-9.357 16.552v0.018l5.954 10.898c0.13 0.236 0.136 0.455 0.018 0.655-0.118 0.177-0.307 0.266-0.568 0.266h-4.236c-0.496 0-0.886-0.266-1.17-0.798l-6.005-11.021c0.213-0.379 3.35-5.943 9.411-16.693 0.295-0.532 0.673-0.798 1.134-0.798h4.271c0.259 0 0.441 0.089 0.548 0.266z"></path>
</svg>
