<?xml version="1.0" encoding="utf-8"?>
<!-- Generated by IcoMoon.io -->
<!DOCTYPE svg PUBLIC "-//W3C//DTD SVG 1.1//EN" "http://www.w3.org/Graphics/SVG/1.1/DTD/svg11.dtd">
<svg version="1.1" xmlns="http://www.w3.org/2000/svg" xmlns:xlink="http://www.w3.org/1999/xlink" width="32" height="32" viewBox="0 0 32 32">
<path fill="#000" d="M19.625 22.214v3.768c0 0.798-0.232 1.196-0.696 1.196-0.273 0-0.541-0.13-0.804-0.393v-5.375c0.262-0.262 0.53-0.393 0.804-0.393 0.464 0 0.696 0.398 0.696 1.196zM25.661 22.232v0.821h-1.607v-0.821c0-0.809 0.268-1.214 0.804-1.214s0.804 0.405 0.804 1.214zM8.411 18.339h1.911v-1.679h-5.571v1.679h1.875v10.161h1.786v-10.161zM13.554 28.5h1.589v-8.821h-1.589v6.75c-0.357 0.5-0.696 0.75-1.018 0.75-0.214 0-0.339-0.125-0.375-0.375-0.012-0.036-0.018-0.245-0.018-0.625v-6.5h-1.589v6.982c0 0.584 0.048 1.018 0.143 1.304 0.143 0.441 0.488 0.661 1.036 0.661 0.571 0 1.179-0.363 1.821-1.089v0.964zM21.214 25.857v-3.518c0-0.87-0.054-1.459-0.161-1.768-0.202-0.666-0.625-1-1.268-1-0.595 0-1.148 0.321-1.661 0.964v-3.875h-1.589v11.839h1.589v-0.857c0.536 0.655 1.089 0.982 1.661 0.982 0.643 0 1.066-0.327 1.268-0.982 0.107-0.321 0.161-0.916 0.161-1.786zM27.25 25.679v-0.232h-1.625c0 0.607-0.012 0.97-0.036 1.089-0.084 0.429-0.321 0.643-0.714 0.643-0.548 0-0.821-0.411-0.821-1.232v-1.554h3.196v-1.839c0-0.941-0.161-1.63-0.482-2.071-0.464-0.607-1.095-0.911-1.893-0.911-0.809 0-1.446 0.304-1.911 0.911-0.334 0.441-0.5 1.13-0.5 2.071v3.089c0 0.941 0.173 1.63 0.518 2.071 0.464 0.607 1.107 0.911 1.929 0.911 0.857 0 1.5-0.316 1.929-0.946 0.214-0.321 0.339-0.643 0.375-0.964 0.023-0.107 0.036-0.452 0.036-1.036zM16.393 9.375v-3.75c0-0.821-0.255-1.232-0.768-1.232s-0.768 0.411-0.768 1.232v3.75c0 0.834 0.255 1.25 0.768 1.25s0.768-0.416 0.768-1.25zM29.232 22.786c0 2.786-0.155 4.87-0.464 6.25-0.166 0.702-0.512 1.291-1.036 1.768s-1.13 0.75-1.821 0.821c-2.191 0.25-5.495 0.375-9.911 0.375s-7.72-0.125-9.911-0.375c-0.691-0.071-1.3-0.345-1.83-0.821s-0.871-1.066-1.027-1.768c-0.309-1.334-0.464-3.416-0.464-6.25 0-2.786 0.155-4.87 0.464-6.25 0.166-0.702 0.513-1.291 1.036-1.768s1.138-0.755 1.839-0.839c2.179-0.238 5.477-0.357 9.893-0.357s7.72 0.12 9.911 0.357c0.691 0.084 1.3 0.363 1.83 0.839s0.871 1.066 1.027 1.768c0.309 1.334 0.464 3.416 0.464 6.25zM11.411 0h1.821l-2.161 7.125v4.839h-1.786v-4.839c-0.166-0.88-0.53-2.143-1.089-3.786-0.441-1.227-0.827-2.339-1.161-3.339h1.893l1.268 4.696 1.214-4.696zM18.018 5.946v3.125c0 0.964-0.166 1.666-0.5 2.107-0.441 0.607-1.071 0.911-1.893 0.911-0.798 0-1.423-0.304-1.875-0.911-0.334-0.452-0.5-1.155-0.5-2.107v-3.125c0-0.952 0.166-1.648 0.5-2.089 0.452-0.607 1.077-0.911 1.875-0.911 0.821 0 1.452 0.304 1.893 0.911 0.334 0.441 0.5 1.138 0.5 2.089zM24 3.054v8.911h-1.625v-0.982c-0.63 0.738-1.245 1.107-1.839 1.107-0.548 0-0.898-0.22-1.054-0.661-0.095-0.286-0.143-0.732-0.143-1.339v-7.036h1.625v6.554c0 0.393 0.005 0.602 0.018 0.625 0.036 0.262 0.161 0.393 0.375 0.393 0.321 0 0.661-0.255 1.018-0.768v-6.804h1.625z"></path>
</svg>
