<?xml version="1.0" encoding="utf-8"?>
<!-- Generated by IcoMoon.io -->
<!DOCTYPE svg PUBLIC "-//W3C//DTD SVG 1.1//EN" "http://www.w3.org/Graphics/SVG/1.1/DTD/svg11.dtd">
<svg version="1.1" xmlns="http://www.w3.org/2000/svg" xmlns:xlink="http://www.w3.org/1999/xlink" width="32" height="32" viewBox="0 0 32 32">
<path d="M29.7,10.3c0,0-0.3-2-1.1-2.8c-1.1-1.1-2.3-1.1-2.8-1.2C21.9,6,16,6,16,6h0c0,0-5.9,0-9.8,0.3C5.6,6.4,4.5,6.4,3.4,7.5c-0.8,0.9-1.1,2.8-1.1,2.8S2,12.6,2,14.9v2.2c0,2.3,0.3,4.6,0.3,4.6s0.3,2,1.1,2.8c1.1,1.1,2.5,1.1,3.1,1.2C8.7,25.9,16,26,16,26s5.9,0,9.8-0.3c0.5-0.1,1.7-0.1,2.8-1.2c0.8-0.9,1.1-2.8,1.1-2.8s0.3-2.3,0.3-4.6v-2.2C30,12.6,29.7,10.3,29.7,10.3z M13.1,19.7l0-8l7.6,4L13.1,19.7z"/>
</svg>
